M48
;Layer_Color=9474304
;FILE_FORMAT=4:4
METRIC,LZ
;TYPE=PLATED
T01F00S00C0.2000
T02F00S00C0.6000
T04F00S00C0.7112
T05F00S00C0.9000
T06F00S00C1.0000
T08F00S00C2.0000
%
T01
X00110775Y0089675
X00129125
X001383Y00905925
Y00924275
X00129125Y009151
Y0093345
X0011995Y00924275
X00110775Y0093345
Y009151
X0011995Y00905925
X001016
Y00924275
T02
X0003937Y0077597
X0021463Y0077851
X0020701Y0073787
T04
X0003429Y0017145
X0003123Y0019902
X00016256Y00260604
X00011938Y002921
X00083058Y00269494
X00217932Y002667
X00265176Y00265176
X0026924Y0024003
X00290322Y00291709
X00316738Y00289814
X00319024Y00331216
X0032155Y003657
X00302388Y00376428
X00257556Y00373489
X0018336Y0033109
X00203708Y00192278
X00321818Y00207772
X0037973Y00332232
X0039116Y003678
X00474472Y00394208
X0047371Y00277622
X00534924Y00430401
X00583184Y00441706
X0058184Y00521462
X00534924Y00505588
X00554228Y0063627
X0058674Y00702056
X0056642Y00768096
X00448818Y00620014
X00411734Y00567436
X00303276Y00557022
X00294894Y00499364
X00257048Y00505206
X00271046Y0047165
X0024426Y00459166
X0030226Y0041783
X001397Y0044831
X00120904Y0047244
X0009779Y0045339
X0009017Y0049784
X0010922Y0057785
X0017018Y00559562
X00196342Y00568452
X00159512Y00633984
X00130556Y0064135
X0011938Y00665226
X00118618Y00705358
X0013335Y0074676
X00166269Y00783174
X0017922Y00704977
X0019759Y0069841
X001905Y0067564
X00164592Y00668782
X00061722Y00685292
X0028575Y006477
X0028194Y0062992
X00299974Y0061976
X0033655Y0069977
X00296672Y00783844
X0030988Y0080518
X00268732Y00799592
X0030099Y00858012
X0023559Y00864108
X0019304Y008509
X00176022Y00847344
X0018542Y0088011
X00175514Y0094488
X00191516Y00954786
X00167386Y00971296
X0013843Y0095123
X0010033Y00964438
X00016002Y00956564
X0002733Y009901
X00027432Y009012
X0006223Y00875792
X00059182Y00812292
X00012192Y00810768
X0002286Y0082677
X00090678Y00833882
X00118872Y00852424
X0024765Y00974013
X00397764Y00928116
X0049276Y0092202
X0049149Y0088296
X0058421Y0090296
X00561086Y008001
T05
X0024464Y0018415
X0026964
X0029464
T06
X0042164Y0075819
X0039624
X0037084
X0034544
T08
X0049354Y0053319
Y0075319
X0027354
Y0053319
M30
