G04*
G04 #@! TF.GenerationSoftware,Altium Limited,Altium Designer,24.5.2 (23)*
G04*
G04 Layer_Physical_Order=1*
G04 Layer_Color=255*
%FSLAX44Y44*%
%MOMM*%
G71*
G04*
G04 #@! TF.SameCoordinates,D1886AC5-69C4-4AC9-A439-FDEF45822962*
G04*
G04*
G04 #@! TF.FilePolarity,Positive*
G04*
G01*
G75*
%ADD13C,0.8000*%
%ADD19R,0.8500X1.3500*%
%ADD20R,1.4000X1.6000*%
%ADD21R,2.0000X0.8000*%
%ADD22R,0.8000X2.0000*%
%ADD23R,1.5000X1.5000*%
%ADD24R,3.0000X3.0000*%
%ADD25R,2.6000X1.1000*%
%ADD26R,2.8000X1.1000*%
%ADD27R,1.1000X1.7000*%
%ADD28R,2.0000X0.9000*%
%ADD29R,1.3300X1.3300*%
%ADD30R,0.9000X2.0000*%
%ADD31R,1.0000X1.2500*%
%ADD32R,1.1000X1.3000*%
%ADD33R,0.6400X0.8400*%
%ADD43R,1.0500X2.2000*%
%ADD48R,1.0000X1.0500*%
%ADD63C,0.1900*%
%ADD64O,1.7000X0.9000*%
%ADD65O,2.0000X0.9000*%
%ADD66C,0.6000*%
%ADD67O,4.1400X2.0700*%
%ADD68R,1.5080X1.5080*%
%ADD69C,0.3000*%
%ADD70C,1.5080*%
%ADD71C,1.4080*%
%ADD72R,1.4080X1.4080*%
%ADD73C,3.2000*%
%ADD74C,3.0000*%
%ADD75C,1.2700*%
G36*
X655320Y157480D02*
X0D01*
Y1009124D01*
X1270Y1009650D01*
X37360D01*
Y1002000D01*
X37557Y1001009D01*
X38119Y1000169D01*
X38959Y999607D01*
X39950Y999410D01*
X142280D01*
X142854Y998024D01*
X110645Y965815D01*
X109029Y966321D01*
X108614Y967869D01*
X107444Y969897D01*
X105789Y971552D01*
X103761Y972722D01*
X101500Y973328D01*
X99160D01*
X96899Y972722D01*
X94871Y971552D01*
X93216Y969897D01*
X92119Y967996D01*
X72856D01*
X60936Y979916D01*
X59782Y980688D01*
X58420Y980958D01*
X57490D01*
Y997140D01*
X32862D01*
X32789Y997214D01*
X30761Y998384D01*
X28500Y998990D01*
X26160D01*
X23898Y998384D01*
X21871Y997214D01*
X20216Y995559D01*
X19046Y993531D01*
X18440Y991271D01*
Y988930D01*
X19046Y986669D01*
X20216Y984641D01*
X21871Y982986D01*
X23898Y981816D01*
X26160Y981210D01*
X28500D01*
X30761Y981816D01*
X31111Y982018D01*
X32410Y981268D01*
Y968259D01*
X24138D01*
X22776Y967988D01*
X21622Y967216D01*
X19292Y964886D01*
X17172Y965454D01*
X14832D01*
X12571Y964848D01*
X10543Y963678D01*
X8888Y962023D01*
X7718Y959995D01*
X7112Y957734D01*
Y955394D01*
X7718Y953133D01*
X8888Y951105D01*
X10543Y949450D01*
X12571Y948280D01*
X14832Y947674D01*
X17172D01*
X19433Y948280D01*
X21461Y949450D01*
X23116Y951105D01*
X24286Y953133D01*
X24892Y955394D01*
Y957734D01*
X24324Y959854D01*
X25612Y961142D01*
X32410D01*
Y957660D01*
Y944960D01*
Y932260D01*
Y919560D01*
Y910091D01*
X31111Y909341D01*
X30863Y909484D01*
X28602Y910090D01*
X26262D01*
X24001Y909484D01*
X21973Y908314D01*
X20318Y906659D01*
X19148Y904632D01*
X18542Y902371D01*
Y900030D01*
X19148Y897769D01*
X20318Y895742D01*
X21973Y894086D01*
X24001Y892916D01*
X26262Y892310D01*
X28602D01*
X29893Y892656D01*
X31423Y891606D01*
X31428Y891593D01*
X31443Y891135D01*
X31266Y891016D01*
X31266Y891016D01*
X10232Y869983D01*
X10232Y869983D01*
X9676Y869426D01*
X9301Y868866D01*
X8918Y868305D01*
X8915Y868287D01*
X8905Y868272D01*
X8773Y867609D01*
X8634Y866946D01*
X8192Y823095D01*
X8163Y823095D01*
X8145Y822960D01*
X8182Y822676D01*
X8232Y821617D01*
X8232Y821617D01*
X8335Y818807D01*
X6733Y817882D01*
X5078Y816227D01*
X3908Y814199D01*
X3302Y811938D01*
Y809598D01*
X3908Y807337D01*
X5078Y805309D01*
X6733Y803654D01*
X8761Y802484D01*
X11022Y801878D01*
X13362D01*
X15623Y802484D01*
X17651Y803654D01*
X19306Y805309D01*
X20476Y807337D01*
X21082Y809598D01*
Y811938D01*
X20476Y814199D01*
X19306Y816227D01*
X17891Y817642D01*
X18812Y818842D01*
X19429Y818486D01*
X21619Y817899D01*
X43012Y796506D01*
X43224Y796364D01*
X43394Y796175D01*
X43824Y795852D01*
X44054Y795742D01*
X44249Y795579D01*
X50027Y792411D01*
X49655Y790958D01*
X35560D01*
X34198Y790687D01*
X33044Y789916D01*
X4850Y761722D01*
X4078Y760568D01*
X3808Y759206D01*
Y503875D01*
X3571Y503520D01*
X3300Y502158D01*
Y475996D01*
X3571Y474634D01*
X4342Y473480D01*
X5496Y472709D01*
X6858Y472438D01*
X27552D01*
Y459740D01*
X27822Y458378D01*
X28594Y457224D01*
X30531Y455287D01*
X29957Y453901D01*
X24750D01*
X22912Y453659D01*
X21200Y452950D01*
X19729Y451821D01*
X18601Y450351D01*
X17891Y448638D01*
X17650Y446800D01*
X17891Y444962D01*
X18601Y443250D01*
X19729Y441779D01*
X21200Y440651D01*
X22912Y439941D01*
X24750Y439700D01*
X32750D01*
X34588Y439941D01*
X36301Y440651D01*
X37771Y441779D01*
X38900Y443250D01*
X39169Y443901D01*
X40739Y444317D01*
X41654Y443574D01*
Y346964D01*
X41925Y345602D01*
X42696Y344448D01*
X135914Y251230D01*
X137068Y250459D01*
X138430Y250188D01*
X138430Y250188D01*
X157475D01*
X170148Y237514D01*
X170149Y237514D01*
X171303Y236742D01*
X172665Y236472D01*
X261029D01*
X262126Y234571D01*
X263781Y232916D01*
X265809Y231746D01*
X268070Y231140D01*
X270410D01*
X272671Y231746D01*
X274699Y232916D01*
X276354Y234571D01*
X277524Y236599D01*
X278130Y238860D01*
Y241200D01*
X277524Y243461D01*
X276354Y245489D01*
X274699Y247144D01*
X272671Y248314D01*
X271278Y248688D01*
X271475Y250188D01*
X349504D01*
X350866Y250459D01*
X352020Y251230D01*
X365990Y265200D01*
X365990Y265200D01*
X366762Y266354D01*
X367032Y267716D01*
Y367080D01*
X403810Y403858D01*
X470544D01*
X470801Y403150D01*
X470808Y402358D01*
X469013Y401322D01*
X467358Y399667D01*
X466188Y397639D01*
X465582Y395378D01*
Y393038D01*
X466188Y390777D01*
X467358Y388749D01*
X469013Y387094D01*
X470914Y385997D01*
Y365700D01*
X452980D01*
Y344620D01*
X472060D01*
Y351614D01*
X473362Y351873D01*
X474516Y352644D01*
X476988Y355116D01*
X477760Y356270D01*
X478030Y357632D01*
Y385997D01*
X479931Y387094D01*
X481586Y388749D01*
X482756Y390777D01*
X483362Y393038D01*
Y395378D01*
X482756Y397639D01*
X481586Y399667D01*
X479931Y401322D01*
X478136Y402358D01*
X478143Y403150D01*
X478400Y403858D01*
X536448D01*
X537810Y404128D01*
X538964Y404900D01*
X549312Y415248D01*
X549312Y415248D01*
X550084Y416402D01*
X550354Y417764D01*
X550354Y417764D01*
Y435422D01*
X550084Y436784D01*
X549312Y437938D01*
X549312Y437938D01*
X543380Y443870D01*
X543842Y445260D01*
X543928Y445370D01*
X545740D01*
Y452372D01*
X554070D01*
Y446890D01*
X570150D01*
Y464970D01*
X568898D01*
X568276Y466470D01*
X572492Y470686D01*
X572830Y471192D01*
X573800Y472290D01*
X574664Y472290D01*
X589880D01*
Y490370D01*
X585398D01*
Y513251D01*
X587298Y514348D01*
X588954Y516003D01*
X590124Y518031D01*
X590730Y520292D01*
Y522632D01*
X590124Y524893D01*
X588954Y526921D01*
X587298Y528576D01*
X585271Y529746D01*
X583010Y530352D01*
X580670D01*
X578408Y529746D01*
X576381Y528576D01*
X575034Y527229D01*
X573750Y527602D01*
X573534Y527753D01*
Y532688D01*
X591796Y550950D01*
X591796Y550950D01*
X592567Y552104D01*
X592838Y553466D01*
Y601590D01*
X597810D01*
Y615070D01*
X586330D01*
Y607747D01*
X585454Y607278D01*
X584610Y607829D01*
Y615070D01*
X582428D01*
Y628470D01*
X591740D01*
Y637970D01*
X606740D01*
Y665050D01*
X591160D01*
Y655068D01*
X577240D01*
Y665050D01*
X561660D01*
Y643531D01*
X560160Y642910D01*
X559687Y643384D01*
X557659Y644554D01*
X555398Y645160D01*
X553058D01*
X550797Y644554D01*
X548769Y643384D01*
X547114Y641729D01*
X545944Y639701D01*
X545338Y637440D01*
Y635100D01*
X545944Y632839D01*
X547114Y630811D01*
X548769Y629156D01*
X550797Y627986D01*
X553058Y627380D01*
X555398D01*
X557659Y627986D01*
X559687Y629156D01*
X561342Y630811D01*
X562439Y632712D01*
X566928D01*
X568290Y632982D01*
X569444Y633754D01*
X571966Y636276D01*
X571966Y636276D01*
X572738Y637430D01*
X572845Y637970D01*
X576660D01*
Y633502D01*
X576354Y633196D01*
X575583Y632042D01*
X575312Y630680D01*
Y619389D01*
X573926Y618815D01*
X570210Y622530D01*
X569056Y623302D01*
X567694Y623572D01*
X457029D01*
X455932Y625473D01*
X454277Y627128D01*
X452249Y628298D01*
X449988Y628904D01*
X447648D01*
X445387Y628298D01*
X443359Y627128D01*
X441704Y625473D01*
X440534Y623445D01*
X439928Y621184D01*
Y619914D01*
X438428Y619404D01*
X379329Y696249D01*
X379154Y696403D01*
X379025Y696596D01*
X378480Y697141D01*
X378092Y697400D01*
X377740Y697708D01*
X377519Y697783D01*
X377326Y697912D01*
X376868Y698003D01*
X376425Y698153D01*
X375784Y698236D01*
X345091Y702243D01*
X344834Y703201D01*
X343664Y705229D01*
X342009Y706884D01*
X339981Y708054D01*
X337720Y708660D01*
X335380D01*
X333119Y708054D01*
X331091Y706884D01*
X329436Y705229D01*
X328266Y703201D01*
X327660Y700940D01*
Y698600D01*
X328266Y696339D01*
X329436Y694311D01*
X331091Y692656D01*
X333119Y691486D01*
X335380Y690880D01*
X337720D01*
X339981Y691486D01*
X342009Y692656D01*
X343664Y694311D01*
X344169Y695187D01*
X374182Y691268D01*
X470752Y565699D01*
X471491Y563880D01*
Y444630D01*
X471762Y443269D01*
X472534Y442114D01*
X482980Y431668D01*
Y416620D01*
X502060D01*
Y437700D01*
X487012D01*
X478608Y446104D01*
Y521544D01*
X480108Y521816D01*
X482359Y519566D01*
X485232Y517646D01*
X488424Y516324D01*
X491812Y515650D01*
X495267D01*
X498656Y516324D01*
X501848Y517646D01*
X504721Y519566D01*
X507164Y522009D01*
X509084Y524882D01*
X510406Y528074D01*
X511080Y531463D01*
Y534918D01*
X510406Y538306D01*
X509084Y541498D01*
X507164Y544371D01*
X504721Y546814D01*
X501848Y548734D01*
X498656Y550056D01*
X495267Y550730D01*
X491812D01*
X488424Y550056D01*
X485232Y548734D01*
X482359Y546814D01*
X480108Y544564D01*
X478608Y544836D01*
Y564576D01*
X478475Y565244D01*
X478346Y565916D01*
X478206Y566259D01*
X477164Y568826D01*
X476900Y569226D01*
X476688Y569655D01*
X445560Y610131D01*
X446439Y611448D01*
X447648Y611124D01*
X449988D01*
X452249Y611730D01*
X454277Y612900D01*
X455932Y614555D01*
X457029Y616456D01*
X566220D01*
X573130Y609546D01*
Y601590D01*
X584222D01*
X584610Y601590D01*
X585722Y600652D01*
Y554940D01*
X567460Y536678D01*
X566688Y535524D01*
X566418Y534162D01*
Y490370D01*
X552800D01*
Y484888D01*
X545740D01*
Y490620D01*
X532160D01*
Y472040D01*
X532160D01*
X532549Y470701D01*
X532564Y470540D01*
X527836Y465812D01*
X527065Y464658D01*
X526924Y463950D01*
X515660D01*
Y445370D01*
X518892D01*
Y442875D01*
X519163Y441514D01*
X519934Y440359D01*
X526602Y433691D01*
X526034Y431572D01*
Y429231D01*
X526640Y426970D01*
X527810Y424943D01*
X529465Y423288D01*
X531493Y422117D01*
X533754Y421511D01*
X536094D01*
X538355Y422117D01*
X540383Y423288D01*
X541738Y424643D01*
X542988Y424289D01*
X543238Y424117D01*
Y419238D01*
X534974Y410974D01*
X402336D01*
X402336Y410974D01*
X400974Y410704D01*
X399820Y409932D01*
X360958Y371070D01*
X360187Y369916D01*
X359916Y368554D01*
Y360620D01*
X342010D01*
Y339540D01*
X347992D01*
Y320440D01*
X341820D01*
Y301860D01*
X355400D01*
Y320440D01*
X355109D01*
Y339540D01*
X359916D01*
Y269190D01*
X348030Y257304D01*
X271998D01*
X271377Y258804D01*
X272290Y259717D01*
X273460Y261745D01*
X274066Y264006D01*
Y266346D01*
X273460Y268607D01*
X272290Y270635D01*
X270635Y272290D01*
X268607Y273460D01*
X266346Y274066D01*
X265818D01*
Y300590D01*
X269050D01*
Y319170D01*
X255470D01*
Y300590D01*
X258702D01*
Y278642D01*
X257316Y278068D01*
X254738Y280646D01*
X253584Y281418D01*
X252222Y281688D01*
X217628D01*
X208510Y290806D01*
X200226Y299090D01*
X200848Y300590D01*
X213160D01*
Y314138D01*
X215876Y316854D01*
X215876Y316854D01*
X216647Y318008D01*
X216918Y319370D01*
X216918Y319370D01*
Y336170D01*
X222900D01*
Y357250D01*
X203820D01*
Y336170D01*
X209802D01*
Y320844D01*
X208128Y319170D01*
X199580D01*
Y301858D01*
X198080Y301236D01*
X196660Y302656D01*
Y319170D01*
X183080D01*
Y308358D01*
X148645D01*
X147284Y308088D01*
X146129Y307316D01*
X144696Y305882D01*
X143310Y306457D01*
Y317900D01*
X142174D01*
X141552Y319400D01*
X147056Y324904D01*
X147828Y326059D01*
X148099Y327420D01*
Y335730D01*
X154080D01*
Y356810D01*
X135000D01*
Y335730D01*
X140982D01*
Y328894D01*
X134004Y321916D01*
X133232Y320762D01*
X132962Y319400D01*
Y317900D01*
X129730D01*
Y309286D01*
X128277Y308279D01*
X126810Y308601D01*
Y317900D01*
X113230D01*
Y306457D01*
X111844Y305883D01*
X97538Y320189D01*
Y389172D01*
X97268Y390534D01*
X96496Y391688D01*
X63169Y425015D01*
X63233Y425823D01*
X64448Y426910D01*
X66652D01*
X68688Y427754D01*
X70246Y429312D01*
X71090Y431348D01*
Y433552D01*
X70246Y435588D01*
X68688Y437147D01*
X66652Y437990D01*
X64448D01*
X62412Y437147D01*
X61634Y436369D01*
X59629Y436254D01*
X48770Y447112D01*
Y459740D01*
X48499Y461102D01*
X47728Y462256D01*
X47728Y462256D01*
X34668Y475316D01*
Y477120D01*
X37900D01*
Y489927D01*
X45912Y497940D01*
X55960D01*
Y515520D01*
X40880D01*
Y502972D01*
X33608Y495700D01*
X24320D01*
Y479554D01*
X21400D01*
Y495700D01*
X18168D01*
Y503102D01*
X41174Y526108D01*
X59220D01*
X60582Y526379D01*
X61736Y527150D01*
X62217Y527870D01*
X209760D01*
Y547870D01*
X233760D01*
Y551084D01*
X233954Y551122D01*
X235108Y551894D01*
X237466Y554252D01*
X237466Y554252D01*
X238237Y555406D01*
X238508Y556768D01*
X238508Y556768D01*
Y619810D01*
X262840Y644142D01*
X277539D01*
X278636Y642241D01*
X280291Y640586D01*
X280770Y640310D01*
X280770Y639521D01*
X280495Y638736D01*
X278509Y638204D01*
X276481Y637034D01*
X274826Y635379D01*
X273656Y633351D01*
X273050Y631090D01*
Y628750D01*
X273618Y626630D01*
X243864Y596876D01*
X243092Y595722D01*
X242822Y594360D01*
Y529749D01*
X148074Y435002D01*
X147303Y433847D01*
X147032Y432485D01*
Y428810D01*
X135000D01*
Y411798D01*
X133500Y411023D01*
X133098Y411308D01*
Y440409D01*
X134598Y440990D01*
X136269Y440026D01*
X138530Y439420D01*
X140870D01*
X143131Y440026D01*
X145159Y441196D01*
X146814Y442851D01*
X147984Y444879D01*
X148590Y447140D01*
Y449480D01*
X147984Y451741D01*
X146814Y453769D01*
X145159Y455424D01*
X143131Y456594D01*
X140870Y457200D01*
X138530D01*
X136269Y456594D01*
X134598Y455630D01*
X133098Y456211D01*
Y465157D01*
X133098Y465157D01*
X132828Y466519D01*
X132056Y467673D01*
X132056Y467673D01*
X131369Y468360D01*
X131231Y468453D01*
X131126Y468582D01*
X129447Y469975D01*
X129794Y471270D01*
Y473610D01*
X129188Y475871D01*
X128018Y477899D01*
X126363Y479554D01*
X124335Y480724D01*
X122074Y481330D01*
X119734D01*
X117473Y480724D01*
X115445Y479554D01*
X113790Y477899D01*
X112620Y475871D01*
X112014Y473610D01*
Y471270D01*
X112620Y469009D01*
X113790Y466981D01*
X115445Y465326D01*
X117473Y464156D01*
X119734Y463550D01*
X122074D01*
X124335Y464156D01*
X124913Y464489D01*
X125982Y463603D01*
Y408940D01*
X126252Y407578D01*
X127024Y406424D01*
X143534Y389914D01*
X144688Y389142D01*
X146050Y388872D01*
X146050Y388872D01*
X344678D01*
X346040Y389142D01*
X347194Y389914D01*
X364852Y407572D01*
X365624Y408726D01*
X365894Y410088D01*
Y630042D01*
X365624Y631404D01*
X364852Y632558D01*
X364852Y632558D01*
X310390Y687020D01*
Y757174D01*
X310390Y757174D01*
X310119Y758536D01*
X309348Y759690D01*
X309348Y759690D01*
X295584Y773454D01*
X296206Y774954D01*
X297842D01*
X300103Y775560D01*
X302131Y776730D01*
X303786Y778385D01*
X304956Y780413D01*
X305562Y782674D01*
Y785014D01*
X304956Y787275D01*
X303786Y789303D01*
X302131Y790958D01*
X300103Y792128D01*
X297842Y792734D01*
X295959D01*
Y814460D01*
X300440D01*
Y831758D01*
X301826Y832332D01*
X329690Y804468D01*
Y736854D01*
X329961Y735492D01*
X330732Y734338D01*
X338860Y726210D01*
X338860Y726210D01*
X340014Y725439D01*
X341376Y725168D01*
X435356D01*
X436718Y725439D01*
X437872Y726210D01*
X560274Y848612D01*
X598200D01*
Y834920D01*
X629280D01*
Y848903D01*
X630404Y849654D01*
X632944Y852194D01*
X632944Y852194D01*
X633716Y853348D01*
X633986Y854710D01*
Y940816D01*
X633986Y940816D01*
X633716Y942178D01*
X632944Y943332D01*
X632944Y943332D01*
X630800Y945476D01*
X629646Y946247D01*
X629280Y946320D01*
Y951000D01*
X598200D01*
Y934920D01*
X626870D01*
Y931000D01*
X598200D01*
Y926518D01*
X551866D01*
X550504Y926247D01*
X549350Y925476D01*
X521258Y897384D01*
X475280D01*
Y911000D01*
X444200D01*
Y906518D01*
X382992D01*
X288774Y1000736D01*
X287620Y1001507D01*
X286258Y1001778D01*
X222722D01*
X222540Y1002000D01*
Y1009650D01*
X655320D01*
Y157480D01*
D02*
G37*
G36*
X202410Y983060D02*
Y970360D01*
Y966124D01*
X201024Y965550D01*
X196826Y969748D01*
X195672Y970519D01*
X194310Y970790D01*
X179578D01*
X178216Y970519D01*
X177754Y970210D01*
X176276Y971027D01*
Y972466D01*
X175670Y974727D01*
X174500Y976755D01*
X172845Y978410D01*
X170817Y979580D01*
X169663Y979890D01*
X169215Y981562D01*
X174194Y986542D01*
X202410D01*
Y983060D01*
D02*
G37*
G36*
X171020Y993162D02*
X170204Y992616D01*
X170204Y992616D01*
X160952Y983364D01*
X160832Y983340D01*
X159678Y982569D01*
X154985Y977876D01*
X154213Y976722D01*
X154190Y976602D01*
X137708Y960120D01*
X137260D01*
X134999Y959514D01*
X132971Y958344D01*
X131316Y956689D01*
X130146Y954661D01*
X129540Y952400D01*
Y950060D01*
X130146Y947799D01*
X131316Y945771D01*
X132948Y944140D01*
X132945Y944029D01*
X132528Y942640D01*
X99494D01*
X98920Y944026D01*
X149556Y994662D01*
X170660D01*
X171020Y993162D01*
D02*
G37*
G36*
X305078Y891310D02*
X306232Y890538D01*
X307594Y890268D01*
X444200D01*
Y874920D01*
X475280D01*
Y879401D01*
X483279D01*
X484376Y877501D01*
X486031Y875846D01*
X488059Y874676D01*
X490320Y874070D01*
X492660D01*
X494921Y874676D01*
X496949Y875846D01*
X498604Y877501D01*
X499774Y879529D01*
X500380Y881789D01*
Y884130D01*
X499774Y886391D01*
X498604Y888419D01*
X498255Y888768D01*
X498876Y890268D01*
X522732D01*
X524094Y890538D01*
X525248Y891310D01*
X553340Y919401D01*
X598200D01*
Y914920D01*
X626870D01*
Y911000D01*
X598200D01*
Y906518D01*
X592421D01*
X591324Y908418D01*
X589669Y910074D01*
X587642Y911244D01*
X585381Y911850D01*
X583040D01*
X580779Y911244D01*
X578752Y910074D01*
X577096Y908418D01*
X575926Y906391D01*
X575320Y904130D01*
Y901789D01*
X575926Y899528D01*
X577096Y897501D01*
X578752Y895846D01*
X580779Y894676D01*
X583040Y894070D01*
X585381D01*
X587642Y894676D01*
X589669Y895846D01*
X591324Y897501D01*
X592421Y899401D01*
X598200D01*
Y894920D01*
X626870D01*
Y891000D01*
X598200D01*
Y886518D01*
X520502D01*
X520502Y886518D01*
X519140Y886247D01*
X517986Y885476D01*
X476780Y844270D01*
X475280Y844892D01*
Y851000D01*
X444200D01*
Y834920D01*
X474724D01*
Y831000D01*
X444200D01*
Y814920D01*
X474724D01*
Y796748D01*
X432700Y754724D01*
X431355Y755501D01*
X431720Y756863D01*
Y759517D01*
X431033Y762081D01*
X429706Y764379D01*
X427829Y766256D01*
X425531Y767583D01*
X422967Y768270D01*
X420313D01*
X417749Y767583D01*
X415451Y766256D01*
X413574Y764379D01*
X412247Y762081D01*
X411560Y759517D01*
Y756863D01*
X412247Y754299D01*
X412419Y754001D01*
X406196Y747778D01*
X401367D01*
X400965Y749278D01*
X402429Y750124D01*
X404306Y752001D01*
X405633Y754299D01*
X406320Y756863D01*
Y759517D01*
X405633Y762081D01*
X404306Y764379D01*
X402429Y766256D01*
X400131Y767583D01*
X399798Y767672D01*
Y790146D01*
X399528Y791507D01*
X398756Y792662D01*
X227752Y963666D01*
X227490Y963841D01*
Y966938D01*
X228876Y967512D01*
X305078Y891310D01*
D02*
G37*
G36*
X197864Y946554D02*
Y943110D01*
X198134Y941748D01*
X198906Y940594D01*
X202410Y937090D01*
Y932260D01*
Y919560D01*
Y904759D01*
X198062D01*
X195074Y907746D01*
Y946575D01*
X196364Y947319D01*
X197864Y946554D01*
D02*
G37*
G36*
X379002Y900444D02*
X379002Y900444D01*
X380156Y899672D01*
X381518Y899401D01*
X381518Y899401D01*
X444200D01*
Y897384D01*
X309068D01*
X229203Y977249D01*
X228049Y978020D01*
X227490Y978132D01*
Y983060D01*
Y994662D01*
X284784D01*
X379002Y900444D01*
D02*
G37*
G36*
X158342Y968797D02*
X158662Y967604D01*
X158046Y966989D01*
X157275Y965834D01*
X157004Y964473D01*
Y830487D01*
X157275Y829125D01*
X157332Y829040D01*
X156530Y827540D01*
X101524D01*
X101488Y827722D01*
X100716Y828876D01*
X99000Y830592D01*
X99568Y832712D01*
Y835052D01*
X98962Y837313D01*
X97792Y839341D01*
X96137Y840996D01*
X94109Y842166D01*
X93461Y842340D01*
X93073Y843789D01*
X98150Y848866D01*
X110661D01*
X111758Y846965D01*
X113413Y845310D01*
X115441Y844140D01*
X117702Y843534D01*
X120042D01*
X122303Y844140D01*
X124331Y845310D01*
X125986Y846965D01*
X127156Y848993D01*
X127762Y851254D01*
Y853594D01*
X127156Y855855D01*
X125986Y857883D01*
X124331Y859538D01*
X122303Y860708D01*
X120042Y861314D01*
X117702D01*
X115441Y860708D01*
X113413Y859538D01*
X111758Y857883D01*
X110661Y855982D01*
X96676D01*
X96676Y855982D01*
X95314Y855712D01*
X94160Y854940D01*
X94160Y854940D01*
X87267Y848047D01*
X85344D01*
X83982Y847776D01*
X82828Y847005D01*
X77502Y841679D01*
X76731Y840525D01*
X76460Y839163D01*
Y837241D01*
X70284Y831064D01*
X69513Y829910D01*
X69242Y828548D01*
Y827540D01*
X65760D01*
Y820223D01*
X64260Y819625D01*
X62740Y820503D01*
Y848114D01*
X62659Y848522D01*
X62644Y848937D01*
X62525Y849196D01*
X62470Y849476D01*
X62238Y849821D01*
X62065Y850199D01*
X61856Y850393D01*
X61698Y850630D01*
X61353Y850861D01*
X61048Y851144D01*
X60781Y851243D01*
X60544Y851402D01*
X60136Y851483D01*
X59746Y851628D01*
X57490Y851990D01*
Y859542D01*
X73152D01*
X74514Y859813D01*
X75668Y860584D01*
X87098Y872014D01*
X87870Y873168D01*
X88140Y874530D01*
Y933246D01*
X91024Y936130D01*
X92410Y935556D01*
Y924260D01*
Y905910D01*
Y887560D01*
X147490D01*
Y905910D01*
Y924260D01*
Y942640D01*
X144332D01*
X143915Y944029D01*
X143912Y944140D01*
X145544Y945771D01*
X146714Y947799D01*
X147320Y950060D01*
Y952400D01*
X146714Y954661D01*
X145544Y956689D01*
X144942Y957290D01*
X156849Y969197D01*
X158342Y968797D01*
D02*
G37*
G36*
X186057Y947672D02*
X187958Y946575D01*
Y906272D01*
X188228Y904910D01*
X189000Y903756D01*
X194072Y898684D01*
X195226Y897913D01*
X196588Y897642D01*
X202410D01*
Y894160D01*
Y881460D01*
Y870274D01*
X200910Y869652D01*
X193742Y876820D01*
X194310Y878940D01*
Y881280D01*
X193704Y883541D01*
X192534Y885569D01*
X190879Y887224D01*
X188851Y888394D01*
X186590Y889000D01*
X184250D01*
X181989Y888394D01*
X180572Y887577D01*
X179072Y888342D01*
Y936669D01*
X180973Y937766D01*
X182628Y939421D01*
X183798Y941449D01*
X184404Y943710D01*
Y946050D01*
X183982Y947627D01*
X185326Y948403D01*
X186057Y947672D01*
D02*
G37*
G36*
X68866Y961922D02*
X68866Y961922D01*
X70020Y961151D01*
X71382Y960880D01*
X92119D01*
X93216Y958979D01*
X94871Y957324D01*
X96899Y956154D01*
X98447Y955739D01*
X98953Y954123D01*
X82066Y937236D01*
X81294Y936082D01*
X81024Y934720D01*
Y876004D01*
X71678Y866658D01*
X67190D01*
X66788Y868158D01*
X67689Y868678D01*
X69344Y870333D01*
X70514Y872361D01*
X71120Y874622D01*
Y876962D01*
X70514Y879223D01*
X69344Y881251D01*
X67689Y882906D01*
X65661Y884076D01*
X63400Y884682D01*
X61060D01*
X58990Y884127D01*
X57913Y884576D01*
X57490Y884821D01*
Y894160D01*
Y906860D01*
Y919560D01*
Y932260D01*
Y944960D01*
Y957660D01*
Y971338D01*
X58876Y971912D01*
X68866Y961922D01*
D02*
G37*
G36*
X297432Y877366D02*
Y866223D01*
X296208Y865516D01*
X294708Y866329D01*
Y875382D01*
X294437Y876744D01*
X293666Y877898D01*
X242448Y929116D01*
X241293Y929888D01*
X239931Y930158D01*
X227490D01*
Y945348D01*
X228876Y945922D01*
X297432Y877366D01*
D02*
G37*
G36*
X181989Y871826D02*
X184250Y871220D01*
X186590D01*
X188710Y871788D01*
X199914Y860584D01*
X199914Y860584D01*
X201068Y859813D01*
X202410Y859546D01*
Y855451D01*
X200910Y855049D01*
X200154Y856359D01*
X198499Y858014D01*
X196471Y859184D01*
X194210Y859790D01*
X191870D01*
X189609Y859184D01*
X187581Y858014D01*
X185926Y856359D01*
X184756Y854331D01*
X184512Y853420D01*
X183978Y853180D01*
X182866Y853073D01*
X181481Y854458D01*
X179453Y855628D01*
X179072Y855730D01*
Y871878D01*
X180572Y872644D01*
X181989Y871826D01*
D02*
G37*
G36*
X171956Y936669D02*
Y855262D01*
X170666Y854517D01*
X169880Y854725D01*
X169166Y855021D01*
Y936648D01*
X170666Y937413D01*
X171956Y936669D01*
D02*
G37*
G36*
X598200Y874920D02*
X626870D01*
Y871000D01*
X598200D01*
Y855728D01*
X558800D01*
X557438Y855458D01*
X556284Y854686D01*
X555443Y853845D01*
X554060Y854584D01*
X554480Y856694D01*
Y860346D01*
X553768Y863928D01*
X552370Y867302D01*
X550341Y870339D01*
X547759Y872921D01*
X544722Y874950D01*
X541348Y876348D01*
X537766Y877060D01*
X534114D01*
X530532Y876348D01*
X527158Y874950D01*
X524121Y872921D01*
X521539Y870339D01*
X519510Y867302D01*
X518112Y863928D01*
X517400Y860346D01*
Y856694D01*
X518112Y853112D01*
X519510Y849738D01*
X521539Y846701D01*
X524121Y844119D01*
X527158Y842090D01*
X530532Y840693D01*
X534114Y839980D01*
X537766D01*
X539876Y840400D01*
X540615Y839017D01*
X433882Y732284D01*
X421444D01*
X421296Y733784D01*
X421478Y733820D01*
X422632Y734592D01*
X480798Y792758D01*
X481570Y793912D01*
X481840Y795274D01*
Y839266D01*
X521976Y879401D01*
X598200D01*
Y874920D01*
D02*
G37*
G36*
X287591Y873908D02*
Y853440D01*
X287862Y852078D01*
X288633Y850924D01*
X292481Y847077D01*
X291907Y845691D01*
X285183D01*
X239857Y891016D01*
X238703Y891788D01*
X237341Y892058D01*
X227490D01*
Y906860D01*
Y919560D01*
Y923042D01*
X238458D01*
X287591Y873908D01*
D02*
G37*
G36*
X271201Y842636D02*
X270627Y841250D01*
X240284D01*
X240284Y841250D01*
X239148Y842182D01*
Y855897D01*
X241049Y856994D01*
X242704Y858649D01*
X243874Y860677D01*
X244480Y862938D01*
Y865278D01*
X243874Y867539D01*
X243461Y868256D01*
X244661Y869177D01*
X271201Y842636D01*
D02*
G37*
G36*
X32410Y879974D02*
Y868760D01*
Y856060D01*
Y843360D01*
Y837709D01*
X30240D01*
X28878Y837438D01*
X27724Y836666D01*
X26150Y835092D01*
X24030Y835660D01*
X21690D01*
X19429Y835054D01*
X17401Y833884D01*
X16913Y833395D01*
X15419Y834023D01*
X15736Y865421D01*
X30910Y880596D01*
X32410Y879974D01*
D02*
G37*
G36*
X51323Y816460D02*
X50898Y815723D01*
X50292Y813462D01*
Y811122D01*
X50898Y808861D01*
X52068Y806833D01*
X53723Y805178D01*
X55751Y804008D01*
X58012Y803402D01*
X60352D01*
X62613Y804008D01*
X64260Y804958D01*
X65760Y804361D01*
Y802460D01*
X108181D01*
X108384Y802156D01*
X112466Y798073D01*
X111845Y796573D01*
X57241D01*
X47891Y801698D01*
X47866Y801717D01*
X33122Y816460D01*
X33744Y817960D01*
X50457D01*
X51323Y816460D01*
D02*
G37*
G36*
X288842Y788116D02*
X288850Y788076D01*
X288388Y787275D01*
X287782Y785014D01*
Y783378D01*
X286282Y782756D01*
X282958Y786080D01*
Y814223D01*
X284360Y814460D01*
Y814460D01*
X288842D01*
Y788116D01*
D02*
G37*
G36*
X215236Y786550D02*
X214643Y785050D01*
X213769D01*
X212106Y784604D01*
X210614Y783743D01*
X209580Y782709D01*
X208822Y782840D01*
X208080Y783245D01*
Y785260D01*
X194500D01*
Y766680D01*
X194500D01*
X194788Y765986D01*
X193598Y764796D01*
X181210D01*
X180941Y765180D01*
X181723Y766680D01*
X191580D01*
Y785260D01*
X188348D01*
Y786012D01*
X188078Y787373D01*
X187306Y788528D01*
X181013Y794821D01*
X181635Y796321D01*
X204808D01*
X215236Y786550D01*
D02*
G37*
G36*
X353058Y790113D02*
Y768270D01*
X336806D01*
Y804242D01*
X338306Y804864D01*
X353058Y790113D01*
D02*
G37*
G36*
X392682Y788672D02*
Y767672D01*
X392349Y767583D01*
X390051Y766256D01*
X389754Y765959D01*
X388368Y766533D01*
Y775809D01*
X388097Y777171D01*
X387326Y778326D01*
X387326Y778326D01*
X316563Y849089D01*
X315408Y849860D01*
X314047Y850131D01*
X307803D01*
X307182Y851631D01*
X308104Y852553D01*
X309274Y854581D01*
X309880Y856842D01*
Y859182D01*
X309274Y861443D01*
X308104Y863471D01*
X306449Y865126D01*
X304548Y866223D01*
Y874845D01*
X305934Y875419D01*
X392682Y788672D01*
D02*
G37*
G36*
X33081Y777767D02*
X32830Y776831D01*
Y775109D01*
X33276Y773446D01*
X34137Y771954D01*
X35354Y770737D01*
X36846Y769876D01*
X38509Y769430D01*
X40231D01*
X41894Y769876D01*
X43386Y770737D01*
X43893Y771245D01*
X43933D01*
X44450Y771142D01*
X44450Y771142D01*
X56080D01*
Y766680D01*
X54889Y765934D01*
X37460D01*
X37460Y765934D01*
X36098Y765663D01*
X34944Y764892D01*
X34944Y764892D01*
X12424Y742373D01*
X11121Y742779D01*
X10924Y742927D01*
Y757732D01*
X31736Y778544D01*
X33081Y777767D01*
D02*
G37*
G36*
X381252Y774336D02*
Y763316D01*
X379752Y762915D01*
X378906Y764379D01*
X377029Y766256D01*
X374731Y767583D01*
X372167Y768270D01*
X369513D01*
X366949Y767583D01*
X364651Y766256D01*
X362774Y764379D01*
X361674Y762475D01*
X360174Y762877D01*
Y791586D01*
X359903Y792948D01*
X359132Y794103D01*
X312757Y840478D01*
X313250Y842106D01*
X313443Y842144D01*
X381252Y774336D01*
D02*
G37*
G36*
X113098Y776966D02*
X112524Y775580D01*
X112310D01*
Y759462D01*
X77890D01*
X77269Y760962D01*
X81886Y765580D01*
X82621Y766680D01*
X86160D01*
Y783842D01*
X106222D01*
X113098Y776966D01*
D02*
G37*
G36*
X362774Y752001D02*
X364651Y750124D01*
X366949Y748797D01*
X369513Y748110D01*
X372167D01*
X374731Y748797D01*
X377029Y750124D01*
X378906Y752001D01*
X379752Y753465D01*
X381252Y753064D01*
Y750570D01*
X381522Y749208D01*
X382294Y748054D01*
X388181Y742166D01*
X387560Y740666D01*
X367234D01*
X360174Y747726D01*
Y753503D01*
X361674Y753905D01*
X362774Y752001D01*
D02*
G37*
G36*
X158764Y787956D02*
X157984Y786605D01*
X157379Y784344D01*
Y782004D01*
X157984Y779743D01*
X159155Y777715D01*
X160810Y776060D01*
X162710Y774963D01*
Y773785D01*
X162981Y772424D01*
X163752Y771269D01*
X176300Y758722D01*
X176300Y758722D01*
X177454Y757951D01*
X178816Y757680D01*
X178816Y757680D01*
X195072D01*
X195369Y757739D01*
X196767Y756601D01*
X196782Y755849D01*
X188704Y747771D01*
X187932Y746617D01*
X187661Y745255D01*
Y736950D01*
X182778D01*
Y743308D01*
X182507Y744670D01*
X181736Y745824D01*
X181736Y745824D01*
X173204Y754356D01*
X172050Y755127D01*
X170688Y755398D01*
X154390D01*
Y775580D01*
X138310D01*
Y755661D01*
X137011Y754911D01*
X136781Y755044D01*
X134520Y755650D01*
X132180D01*
X129919Y755044D01*
X129689Y754911D01*
X128390Y755661D01*
Y775580D01*
X123742D01*
X123637Y776108D01*
X122866Y777262D01*
X112058Y788071D01*
X112632Y789456D01*
X157952D01*
X158764Y787956D01*
D02*
G37*
G36*
X258360Y814460D02*
X262841D01*
Y806274D01*
X261618Y805051D01*
X260448Y803023D01*
X259842Y800762D01*
Y798422D01*
X260448Y796161D01*
X261618Y794133D01*
X263273Y792478D01*
X265301Y791308D01*
X267562Y790702D01*
X269902D01*
X272163Y791308D01*
X274191Y792478D01*
X274456Y792744D01*
X275842Y792169D01*
Y784606D01*
X276112Y783244D01*
X276884Y782090D01*
X303274Y755700D01*
Y685590D01*
X303176Y685498D01*
X301880Y684862D01*
X258608Y728134D01*
Y741544D01*
X260108Y741816D01*
X262359Y739566D01*
X265232Y737646D01*
X268424Y736324D01*
X271813Y735650D01*
X275268D01*
X278656Y736324D01*
X281849Y737646D01*
X284721Y739566D01*
X287164Y742009D01*
X289084Y744882D01*
X290406Y748074D01*
X291080Y751462D01*
Y754917D01*
X290406Y758306D01*
X289084Y761498D01*
X287164Y764371D01*
X284721Y766814D01*
X281849Y768734D01*
X278656Y770056D01*
X275268Y770730D01*
X271813D01*
X268424Y770056D01*
X265232Y768734D01*
X262359Y766814D01*
X260108Y764563D01*
X258608Y764835D01*
Y765465D01*
X258337Y766826D01*
X257566Y767981D01*
X208973Y816574D01*
X209547Y817960D01*
X227490D01*
Y821442D01*
X227592D01*
X228954Y821713D01*
X230108Y822484D01*
X238106Y830482D01*
X238106Y830482D01*
X241758Y834134D01*
X258360D01*
Y814460D01*
D02*
G37*
G36*
X353058Y746252D02*
X353329Y744890D01*
X354100Y743736D01*
X363244Y734592D01*
X364398Y733820D01*
X364580Y733784D01*
X364432Y732284D01*
X342850D01*
X336806Y738328D01*
Y748110D01*
X353058D01*
Y746252D01*
D02*
G37*
G36*
X231392Y769743D02*
Y716950D01*
X224778D01*
Y772319D01*
X224507Y773681D01*
X223736Y774836D01*
X222623Y775949D01*
X222566Y775987D01*
X222526Y776042D01*
X221366Y777118D01*
X221517Y778224D01*
X222987Y778758D01*
X231392Y769743D01*
D02*
G37*
G36*
X210614Y773277D02*
X212106Y772416D01*
X213769Y771970D01*
X215491D01*
X216235Y772169D01*
X217638Y770869D01*
X217661Y770846D01*
Y716950D01*
X209760D01*
Y727116D01*
X209828Y727460D01*
Y731945D01*
X211026Y732637D01*
X212243Y733854D01*
X213104Y735346D01*
X213550Y737009D01*
Y738731D01*
X213104Y740394D01*
X212243Y741886D01*
X211026Y743103D01*
X209534Y743964D01*
X207871Y744410D01*
X206149D01*
X204486Y743964D01*
X202994Y743103D01*
X201777Y741886D01*
X200916Y740394D01*
X200470Y738731D01*
Y737009D01*
X200425Y736950D01*
X194778D01*
Y743781D01*
X203806Y752809D01*
X204577Y753963D01*
X204848Y755325D01*
Y766680D01*
X208080D01*
Y773775D01*
X208822Y774180D01*
X209580Y774311D01*
X210614Y773277D01*
D02*
G37*
G36*
X126110Y752000D02*
X125066Y750191D01*
X124460Y747930D01*
Y745590D01*
X125066Y743329D01*
X126236Y741301D01*
X127891Y739646D01*
X129919Y738476D01*
X130015Y738450D01*
X129817Y736950D01*
X52680D01*
Y716950D01*
X31244D01*
Y739190D01*
X44400Y752346D01*
X120350D01*
X121712Y752617D01*
X122866Y753388D01*
X122941Y753500D01*
X125630D01*
X126110Y752000D01*
D02*
G37*
G36*
X208680Y701968D02*
X205800D01*
X204703Y703869D01*
X203048Y705524D01*
X201021Y706694D01*
X198760Y707300D01*
X196419D01*
X194158Y706694D01*
X192131Y705524D01*
X190476Y703869D01*
X189305Y701842D01*
X188700Y699581D01*
Y697240D01*
X189305Y694979D01*
X190476Y692952D01*
X192131Y691296D01*
X194158Y690126D01*
X196419Y689520D01*
X198760D01*
X201021Y690126D01*
X203048Y691296D01*
X204703Y692952D01*
X205800Y694852D01*
X208680D01*
Y686918D01*
X198220D01*
X196858Y686648D01*
X195704Y685876D01*
X193790Y683962D01*
X191670Y684530D01*
X189330D01*
X187069Y683924D01*
X185041Y682754D01*
X183386Y681099D01*
X182216Y679071D01*
X181610Y676810D01*
Y674470D01*
X182216Y672209D01*
X183386Y670181D01*
X185041Y668526D01*
X187069Y667356D01*
X189330Y666750D01*
X191670D01*
X192736Y667035D01*
X193512Y665691D01*
X185176Y657354D01*
X155906D01*
X122176Y691084D01*
Y697147D01*
X124077Y698244D01*
X125732Y699899D01*
X126902Y701927D01*
X127508Y704188D01*
Y706528D01*
X126902Y708789D01*
X125990Y710370D01*
X126635Y711870D01*
X171581D01*
X171872Y711166D01*
X172068Y710370D01*
X170936Y708408D01*
X170330Y706147D01*
Y704802D01*
X162076Y696548D01*
X161304Y695394D01*
X161034Y694032D01*
Y676993D01*
X159133Y675896D01*
X157478Y674241D01*
X156308Y672213D01*
X155702Y669952D01*
Y667612D01*
X156308Y665351D01*
X157478Y663323D01*
X159133Y661668D01*
X161161Y660498D01*
X163422Y659892D01*
X165762D01*
X168023Y660498D01*
X170051Y661668D01*
X171706Y663323D01*
X172876Y665351D01*
X173482Y667612D01*
Y669952D01*
X172876Y672213D01*
X171706Y674241D01*
X170051Y675896D01*
X168150Y676993D01*
Y692558D01*
X173608Y698016D01*
X173761Y697863D01*
X175788Y696693D01*
X178050Y696087D01*
X180390D01*
X182651Y696693D01*
X184678Y697863D01*
X186334Y699518D01*
X187504Y701546D01*
X188110Y703807D01*
Y706147D01*
X187504Y708408D01*
X186371Y710370D01*
X186567Y711166D01*
X186859Y711870D01*
X208680D01*
Y701968D01*
D02*
G37*
G36*
X56263Y678178D02*
X58164Y677081D01*
Y620710D01*
X55422Y617969D01*
X53760D01*
Y631870D01*
Y643870D01*
Y655870D01*
Y667870D01*
Y678560D01*
X55260Y679182D01*
X56263Y678178D01*
D02*
G37*
G36*
X111246Y710370D02*
X110334Y708789D01*
X109728Y706528D01*
Y704188D01*
X110334Y701927D01*
X111504Y699899D01*
X113159Y698244D01*
X115060Y697147D01*
Y689610D01*
X115330Y688248D01*
X116102Y687094D01*
X151916Y651280D01*
X153070Y650508D01*
X154432Y650238D01*
X186650D01*
X188012Y650508D01*
X189166Y651280D01*
X207294Y669408D01*
X208680Y668834D01*
Y655870D01*
Y643870D01*
Y631870D01*
Y619870D01*
Y605968D01*
X170970D01*
X138878Y638060D01*
X139446Y640180D01*
Y642520D01*
X138840Y644781D01*
X137670Y646809D01*
X136015Y648464D01*
X133987Y649634D01*
X131726Y650240D01*
X129386D01*
X127125Y649634D01*
X125097Y648464D01*
X124438Y647805D01*
X122938Y648426D01*
Y657015D01*
X124839Y658112D01*
X126494Y659767D01*
X127664Y661795D01*
X128270Y664056D01*
Y666396D01*
X127664Y668657D01*
X126494Y670685D01*
X124839Y672340D01*
X122811Y673510D01*
X120550Y674116D01*
X118210D01*
X115949Y673510D01*
X113921Y672340D01*
X112266Y670685D01*
X111096Y668657D01*
X110490Y666396D01*
Y665042D01*
X108990Y664426D01*
X103760Y669720D01*
Y699950D01*
X68680D01*
Y692866D01*
X67294Y692292D01*
X67181Y692406D01*
X65153Y693576D01*
X62892Y694182D01*
X60552D01*
X58291Y693576D01*
X56263Y692406D01*
X55260Y691403D01*
X54066Y691775D01*
X53760Y692024D01*
Y703870D01*
Y711870D01*
X110601D01*
X111246Y710370D01*
D02*
G37*
G36*
X68680Y677718D02*
Y664870D01*
X98547D01*
X105662Y657669D01*
Y623450D01*
X99180D01*
Y608402D01*
X96746Y605968D01*
X53760D01*
Y610852D01*
X56896D01*
X58258Y611123D01*
X59412Y611894D01*
X64238Y616720D01*
X64238Y616720D01*
X65009Y617874D01*
X65280Y619236D01*
X65280Y619236D01*
Y677081D01*
X67181Y678178D01*
X67294Y678292D01*
X68680Y677718D01*
D02*
G37*
G36*
X125097Y634236D02*
X127125Y633066D01*
X129386Y632460D01*
X131726D01*
X133846Y633028D01*
X166980Y599894D01*
X166980Y599894D01*
X168134Y599122D01*
X169496Y598851D01*
X169496Y598851D01*
X208680D01*
Y595870D01*
Y581968D01*
X206300D01*
X204938Y581697D01*
X203784Y580926D01*
X199632Y576774D01*
X197512Y577342D01*
X195172D01*
X192911Y576736D01*
X190883Y575566D01*
X189228Y573911D01*
X188058Y571883D01*
X187452Y569622D01*
Y569256D01*
X185952Y568634D01*
X128500Y626086D01*
X127346Y626857D01*
X125984Y627128D01*
X122938D01*
Y634274D01*
X124438Y634895D01*
X125097Y634236D01*
D02*
G37*
G36*
X179279Y565242D02*
X178680Y563720D01*
X178057Y563698D01*
X177294Y565021D01*
X175639Y566676D01*
X173611Y567846D01*
X171350Y568452D01*
X169010D01*
X166749Y567846D01*
X164721Y566676D01*
X163066Y565021D01*
X161896Y562993D01*
X161290Y560732D01*
Y558392D01*
X161896Y556131D01*
X162866Y554450D01*
X162293Y552950D01*
X98778D01*
Y558649D01*
X98808Y558800D01*
X98808Y558800D01*
Y562406D01*
X105930Y569528D01*
X108050Y568960D01*
X110390D01*
X112651Y569566D01*
X114679Y570736D01*
X116334Y572391D01*
X117504Y574419D01*
X118110Y576680D01*
Y579020D01*
X117504Y581281D01*
X116334Y583309D01*
X114679Y584964D01*
X112651Y586134D01*
X110390Y586740D01*
X108050D01*
X105789Y586134D01*
X103761Y584964D01*
X102106Y583309D01*
X100936Y581281D01*
X100330Y579020D01*
Y576680D01*
X100898Y574560D01*
X92734Y566396D01*
X91962Y565242D01*
X91692Y563880D01*
Y558921D01*
X91662Y558770D01*
Y552950D01*
X53760D01*
Y559870D01*
Y571870D01*
Y583870D01*
Y598851D01*
X98220D01*
X99581Y599122D01*
X100736Y599894D01*
X104212Y603370D01*
X119260D01*
Y618418D01*
X120854Y620012D01*
X124510D01*
X179279Y565242D01*
D02*
G37*
G36*
X244092Y765111D02*
Y725678D01*
X244363Y724316D01*
X245134Y723162D01*
X311148Y657148D01*
Y563844D01*
X309648Y563223D01*
X308735Y564136D01*
X306707Y565306D01*
X304446Y565912D01*
X302106D01*
X299845Y565306D01*
X297817Y564136D01*
X296162Y562481D01*
X294992Y560453D01*
X294386Y558192D01*
Y555852D01*
X294992Y553591D01*
X296162Y551563D01*
X297817Y549908D01*
X299845Y548738D01*
X302106Y548132D01*
X304446D01*
X306707Y548738D01*
X308735Y549908D01*
X309648Y550821D01*
X311148Y550200D01*
Y548590D01*
X292259Y529702D01*
X290877Y530440D01*
X291080Y531463D01*
Y534918D01*
X290406Y538306D01*
X289084Y541498D01*
X287164Y544371D01*
X284721Y546814D01*
X281849Y548734D01*
X278656Y550056D01*
X275268Y550730D01*
X271813D01*
X268424Y550056D01*
X265232Y548734D01*
X262359Y546814D01*
X259916Y544371D01*
X257997Y541498D01*
X257026Y539156D01*
X255526Y539455D01*
Y551992D01*
X302490Y598956D01*
X302490Y598956D01*
X303262Y600110D01*
X303532Y601472D01*
X303532Y601472D01*
Y611549D01*
X305433Y612646D01*
X307088Y614301D01*
X308258Y616329D01*
X308864Y618590D01*
Y620930D01*
X308258Y623191D01*
X307088Y625219D01*
X305433Y626874D01*
X303405Y628044D01*
X301144Y628650D01*
X298804D01*
X296543Y628044D01*
X294515Y626874D01*
X292860Y625219D01*
X291690Y623191D01*
X291084Y620930D01*
Y618590D01*
X291690Y616329D01*
X292860Y614301D01*
X294515Y612646D01*
X296416Y611549D01*
Y602946D01*
X251324Y557854D01*
X249938Y558428D01*
Y592886D01*
X278650Y621598D01*
X280770Y621030D01*
X283110D01*
X285371Y621636D01*
X287399Y622806D01*
X289054Y624461D01*
X290224Y626489D01*
X290830Y628750D01*
Y631090D01*
X290224Y633351D01*
X289054Y635379D01*
X287399Y637034D01*
X286920Y637310D01*
X286920Y638099D01*
X287195Y638884D01*
X289181Y639416D01*
X291209Y640586D01*
X292864Y642241D01*
X294034Y644269D01*
X294640Y646530D01*
Y648870D01*
X294034Y651131D01*
X292864Y653159D01*
X291209Y654814D01*
X289181Y655984D01*
X286920Y656590D01*
X284580D01*
X282319Y655984D01*
X280291Y654814D01*
X278636Y653159D01*
X277539Y651258D01*
X261366D01*
X260004Y650987D01*
X258850Y650216D01*
X235146Y626512D01*
X233760Y627086D01*
Y631870D01*
Y643870D01*
Y659024D01*
X234258Y659123D01*
X235412Y659894D01*
X237466Y661948D01*
X237466Y661948D01*
X238237Y663102D01*
X238508Y664464D01*
Y768735D01*
X239894Y769309D01*
X244092Y765111D01*
D02*
G37*
G36*
X24671Y742433D02*
X24399Y742026D01*
X24128Y740664D01*
Y581152D01*
X24399Y579790D01*
X25170Y578636D01*
X27912Y575894D01*
X27912Y575894D01*
X28680Y575381D01*
Y571870D01*
Y559870D01*
Y547870D01*
X52680D01*
Y533225D01*
X39700D01*
X38338Y532954D01*
X37184Y532182D01*
X19554Y514552D01*
X18168Y515127D01*
Y738052D01*
X23505Y743389D01*
X24671Y742433D01*
D02*
G37*
G36*
X257997Y524882D02*
X259916Y522009D01*
X262359Y519566D01*
X265232Y517646D01*
X268424Y516324D01*
X271813Y515650D01*
X275268D01*
X276290Y515854D01*
X277029Y514471D01*
X267438Y504880D01*
X265938Y505502D01*
Y506376D01*
X265332Y508637D01*
X264162Y510665D01*
X262507Y512320D01*
X260479Y513490D01*
X258218Y514096D01*
X256103D01*
X255605Y514665D01*
X255218Y515472D01*
X255256Y515528D01*
X255526Y516890D01*
X255526Y516890D01*
Y526926D01*
X257026Y527224D01*
X257997Y524882D01*
D02*
G37*
G36*
X358778Y628568D02*
Y432620D01*
X355109D01*
Y630116D01*
X355206Y630207D01*
X356502Y630844D01*
X358778Y628568D01*
D02*
G37*
G36*
X347992Y628686D02*
Y432620D01*
X342010D01*
Y411540D01*
X356796D01*
X357370Y410154D01*
X343204Y395988D01*
X147524D01*
X137168Y406344D01*
X137742Y407730D01*
X154080D01*
Y423977D01*
X154148Y424320D01*
Y431012D01*
X247024Y523887D01*
X248410Y523313D01*
Y518364D01*
X210844Y480798D01*
X210072Y479644D01*
X209802Y478282D01*
Y429250D01*
X203820D01*
Y408170D01*
X222900D01*
Y429250D01*
X216918D01*
Y476808D01*
X231224Y491114D01*
X232610Y490540D01*
Y477120D01*
X241158D01*
X245362Y472916D01*
Y468222D01*
X245196Y468056D01*
X243090D01*
X240829Y467450D01*
X238802Y466280D01*
X237146Y464625D01*
X235976Y462597D01*
X235370Y460336D01*
Y457996D01*
X235976Y455735D01*
X237146Y453707D01*
X238802Y452052D01*
X240829Y450882D01*
X243090Y450276D01*
X245431D01*
X247692Y450882D01*
X249719Y452052D01*
X251374Y453707D01*
X252544Y455735D01*
X253150Y457996D01*
Y460336D01*
X252544Y462597D01*
X251524Y464364D01*
X252208Y465386D01*
X252478Y466748D01*
Y474390D01*
X252234Y475620D01*
X252263Y475837D01*
X253097Y477120D01*
X261514Y477120D01*
X261545D01*
X261545D01*
X262208Y477120D01*
X262974Y476117D01*
D01*
Y476117D01*
X262677Y474762D01*
X262156Y472820D01*
Y470479D01*
X262762Y468218D01*
X263933Y466191D01*
X265588Y464536D01*
X267615Y463365D01*
X269876Y462760D01*
X272217D01*
X274336Y463327D01*
X277902Y459762D01*
Y430520D01*
X271921D01*
Y409440D01*
X291000D01*
Y430520D01*
X285019D01*
Y461235D01*
X285019Y461236D01*
X284748Y462597D01*
X283977Y463752D01*
X283976Y463752D01*
X279369Y468360D01*
X279936Y470479D01*
Y472820D01*
X279331Y475081D01*
X278160Y477108D01*
X276505Y478763D01*
X274478Y479934D01*
X272217Y480540D01*
X269876D01*
X267615Y479934D01*
X265588Y478763D01*
X265015Y478191D01*
X263843Y477449D01*
X262690Y477901D01*
X262690Y477901D01*
X262690Y478420D01*
Y490068D01*
X317222Y544600D01*
X317994Y545754D01*
X318264Y547116D01*
Y656453D01*
X319650Y657028D01*
X347992Y628686D01*
D02*
G37*
G36*
X183080Y300590D02*
X189381D01*
X189465Y300170D01*
X190236Y299016D01*
X203478Y285774D01*
X213255Y275997D01*
X213261Y274613D01*
X213095Y274173D01*
X212473Y273814D01*
X210818Y272159D01*
X209648Y270131D01*
X209042Y267870D01*
Y265530D01*
X209648Y263269D01*
X210818Y261241D01*
X212473Y259586D01*
X213828Y258804D01*
X213426Y257304D01*
X160423D01*
X119793Y297934D01*
X120367Y299320D01*
X125439D01*
X125492Y299053D01*
X126264Y297898D01*
X128308Y295854D01*
X128308Y295854D01*
X129463Y295082D01*
X130824Y294812D01*
X130824Y294812D01*
X142215D01*
X143577Y295082D01*
X144732Y295854D01*
X150119Y301242D01*
X183080D01*
Y300590D01*
D02*
G37*
G36*
X256854Y268466D02*
X256286Y266346D01*
Y264006D01*
X256892Y261745D01*
X258062Y259717D01*
X258975Y258804D01*
X258354Y257304D01*
X222438D01*
X222036Y258804D01*
X223391Y259586D01*
X225046Y261241D01*
X226216Y263269D01*
X226822Y265530D01*
Y267870D01*
X226216Y270131D01*
X225046Y272159D01*
X224133Y273072D01*
X224754Y274572D01*
X250748D01*
X256854Y268466D01*
D02*
G37*
G36*
X55501Y430316D02*
Y424093D01*
X55772Y422731D01*
X56543Y421576D01*
X90422Y387698D01*
Y318715D01*
X90693Y317353D01*
X91464Y316199D01*
X148972Y258690D01*
X148398Y257304D01*
X139904D01*
X48770Y348438D01*
Y435087D01*
X50156Y435662D01*
X55501Y430316D01*
D02*
G37*
G36*
X267202Y248688D02*
X265809Y248314D01*
X263781Y247144D01*
X262126Y245489D01*
X261029Y243588D01*
X174139D01*
X168925Y248802D01*
X169499Y250188D01*
X267005D01*
X267202Y248688D01*
D02*
G37*
%LPC*%
G36*
X629280Y971000D02*
X598200D01*
Y966518D01*
X562864D01*
X562864Y966518D01*
X561502Y966247D01*
X560348Y965476D01*
X560348Y965476D01*
X552621Y957749D01*
X549655Y958978D01*
X546290Y959421D01*
X525590D01*
X522225Y958978D01*
X519089Y957679D01*
X516397Y955613D01*
X514331Y952920D01*
X513112Y949978D01*
X481310D01*
X477013Y954275D01*
X477280Y954920D01*
X477280D01*
Y971000D01*
X444200D01*
Y954920D01*
X457198D01*
Y951000D01*
X444200D01*
Y934920D01*
X475280D01*
Y943984D01*
X476666Y944558D01*
X477320Y943904D01*
X477320Y943904D01*
X478474Y943132D01*
X479836Y942861D01*
X479836Y942861D01*
X513112D01*
X514331Y939919D01*
X516397Y937226D01*
X519089Y935160D01*
X522225Y933861D01*
X525590Y933419D01*
X546290D01*
X549655Y933861D01*
X552791Y935160D01*
X555483Y937226D01*
X557549Y939919D01*
X558848Y943055D01*
X559291Y946420D01*
X558848Y949785D01*
X557639Y952703D01*
X564338Y959401D01*
X598200D01*
Y954920D01*
X629280D01*
Y971000D01*
D02*
G37*
G36*
X398934Y937006D02*
X396594D01*
X394333Y936400D01*
X392305Y935230D01*
X390650Y933575D01*
X389480Y931547D01*
X388874Y929286D01*
Y926946D01*
X389480Y924685D01*
X390650Y922657D01*
X392305Y921002D01*
X394333Y919832D01*
X396594Y919226D01*
X398934D01*
X401195Y919832D01*
X403223Y921002D01*
X404878Y922657D01*
X406048Y924685D01*
X406654Y926946D01*
Y929286D01*
X406048Y931547D01*
X404878Y933575D01*
X403223Y935230D01*
X401195Y936400D01*
X398934Y937006D01*
D02*
G37*
G36*
X475280Y931000D02*
X444200D01*
Y914920D01*
X475280D01*
Y919401D01*
X484258D01*
X484476Y918589D01*
X485646Y916561D01*
X487301Y914906D01*
X489329Y913736D01*
X491590Y913130D01*
X493930D01*
X496191Y913736D01*
X498219Y914906D01*
X499874Y916561D01*
X501044Y918589D01*
X501650Y920850D01*
Y923190D01*
X501044Y925451D01*
X499874Y927479D01*
X498219Y929134D01*
X496191Y930304D01*
X493930Y930910D01*
X491590D01*
X489329Y930304D01*
X487301Y929134D01*
X485646Y927479D01*
X485092Y926518D01*
X475280D01*
Y931000D01*
D02*
G37*
G36*
X629280Y831000D02*
X598200D01*
Y826518D01*
X575056D01*
X573694Y826247D01*
X572540Y825476D01*
X572540Y825476D01*
X558570Y811506D01*
X557799Y810352D01*
X557528Y808990D01*
Y808311D01*
X555627Y807214D01*
X553972Y805559D01*
X552802Y803531D01*
X552196Y801270D01*
Y798930D01*
X552802Y796669D01*
X553972Y794641D01*
X555627Y792986D01*
X557655Y791816D01*
X559916Y791210D01*
X562256D01*
X564517Y791816D01*
X566545Y792986D01*
X568200Y794641D01*
X569370Y796669D01*
X569976Y798930D01*
Y801270D01*
X569370Y803531D01*
X568200Y805559D01*
X566545Y807214D01*
X566215Y807404D01*
X566019Y808891D01*
X576530Y819402D01*
X598200D01*
Y814920D01*
X629280D01*
Y831000D01*
D02*
G37*
G36*
X311050Y814070D02*
X308710D01*
X306449Y813464D01*
X304421Y812294D01*
X302766Y810639D01*
X301596Y808611D01*
X300990Y806350D01*
Y804010D01*
X301596Y801749D01*
X302766Y799721D01*
X304421Y798066D01*
X306449Y796896D01*
X308710Y796290D01*
X311050D01*
X313311Y796896D01*
X315339Y798066D01*
X316994Y799721D01*
X318164Y801749D01*
X318770Y804010D01*
Y806350D01*
X318164Y808611D01*
X316994Y810639D01*
X315339Y812294D01*
X313311Y813464D01*
X311050Y814070D01*
D02*
G37*
G36*
X495267Y770730D02*
X491812D01*
X488424Y770056D01*
X485232Y768734D01*
X482359Y766814D01*
X479916Y764371D01*
X477996Y761498D01*
X476674Y758306D01*
X476000Y754917D01*
Y751462D01*
X476674Y748074D01*
X477996Y744882D01*
X479916Y742009D01*
X482359Y739566D01*
X485232Y737646D01*
X488424Y736324D01*
X491812Y735650D01*
X495267D01*
X498656Y736324D01*
X501848Y737646D01*
X504721Y739566D01*
X507164Y742009D01*
X509084Y744882D01*
X510406Y748074D01*
X511080Y751462D01*
Y754917D01*
X510406Y758306D01*
X509084Y761498D01*
X507164Y764371D01*
X504721Y766814D01*
X501848Y768734D01*
X498656Y770056D01*
X495267Y770730D01*
D02*
G37*
G36*
X567590Y776986D02*
X565250D01*
X562989Y776380D01*
X560961Y775210D01*
X559306Y773555D01*
X558136Y771527D01*
X557530Y769266D01*
Y766926D01*
X558136Y764665D01*
X559306Y762637D01*
X560961Y760982D01*
X562989Y759812D01*
X565250Y759206D01*
X567590D01*
X569851Y759812D01*
X571879Y760982D01*
X573534Y762637D01*
X574631Y764538D01*
X591870D01*
X597931Y758476D01*
Y743790D01*
X593700D01*
Y733808D01*
X579780D01*
Y743790D01*
X564200D01*
Y716710D01*
X579200D01*
Y707210D01*
X579200D01*
X579325Y706993D01*
X578456Y705487D01*
X577850Y703226D01*
Y700886D01*
X578456Y698625D01*
X579626Y696597D01*
X581281Y694942D01*
X583309Y693772D01*
X585570Y693166D01*
X587910D01*
X590171Y693772D01*
X592199Y694942D01*
X593854Y696597D01*
X595024Y698625D01*
X595630Y700886D01*
Y703226D01*
X595024Y705487D01*
X594155Y706993D01*
X594280Y707210D01*
X594280D01*
Y716710D01*
X609280D01*
Y743790D01*
X605048D01*
Y759950D01*
X604777Y761312D01*
X604006Y762466D01*
X595860Y770612D01*
X594706Y771384D01*
X593344Y771654D01*
X574631D01*
X573534Y773555D01*
X571879Y775210D01*
X569851Y776380D01*
X567590Y776986D01*
D02*
G37*
G36*
X536094Y514478D02*
X533754D01*
X531493Y513873D01*
X529465Y512702D01*
X527810Y511047D01*
X526640Y509020D01*
X526034Y506759D01*
Y504418D01*
X526640Y502157D01*
X527810Y500130D01*
X528070Y499870D01*
X519934Y491735D01*
X519189Y490620D01*
X515660D01*
Y472040D01*
X529240D01*
Y490620D01*
X529240Y490620D01*
X529240D01*
X530027Y491763D01*
X534962Y496698D01*
X536094D01*
X538355Y497304D01*
X540383Y498475D01*
X542038Y500130D01*
X543208Y502157D01*
X543814Y504418D01*
Y506759D01*
X543208Y509020D01*
X542038Y511047D01*
X540383Y512702D01*
X538355Y513873D01*
X536094Y514478D01*
D02*
G37*
G36*
X75960Y515520D02*
X60880D01*
Y497940D01*
X75960D01*
Y503172D01*
X79806D01*
X81848Y501130D01*
X81280Y499010D01*
Y496670D01*
X81886Y494409D01*
X83056Y492381D01*
X84711Y490726D01*
X86739Y489556D01*
X89000Y488950D01*
X91340D01*
X93601Y489556D01*
X95629Y490726D01*
X97284Y492381D01*
X98454Y494409D01*
X99060Y496670D01*
Y499010D01*
X98454Y501271D01*
X97284Y503299D01*
X95629Y504954D01*
X93601Y506124D01*
X91340Y506730D01*
X89000D01*
X86880Y506162D01*
X83796Y509246D01*
X82642Y510018D01*
X81280Y510288D01*
X75960D01*
Y515520D01*
D02*
G37*
G36*
X75950Y453901D02*
X64950D01*
X63112Y453659D01*
X61400Y452950D01*
X59929Y451821D01*
X58801Y450351D01*
X58091Y448638D01*
X57849Y446800D01*
X58091Y444962D01*
X58801Y443250D01*
X59929Y441779D01*
X61400Y440651D01*
X63112Y439941D01*
X64950Y439700D01*
X75950D01*
X77788Y439941D01*
X79500Y440651D01*
X80971Y441779D01*
X82099Y443250D01*
X82809Y444962D01*
X83051Y446800D01*
X82809Y448638D01*
X82099Y450351D01*
X80971Y451821D01*
X79500Y452950D01*
X77788Y453659D01*
X75950Y453901D01*
D02*
G37*
G36*
X591150Y464970D02*
X575070D01*
Y446890D01*
X575070D01*
X575491Y446161D01*
X574900Y445137D01*
X574294Y442876D01*
Y440536D01*
X574900Y438275D01*
X576070Y436247D01*
X577725Y434592D01*
X579753Y433422D01*
X582014Y432816D01*
X584354D01*
X586615Y433422D01*
X588643Y434592D01*
X590298Y436247D01*
X591468Y438275D01*
X592074Y440536D01*
Y442876D01*
X591468Y445137D01*
X590803Y446289D01*
X591150Y446890D01*
X591150D01*
Y464970D01*
D02*
G37*
G36*
X472060Y437700D02*
X452980D01*
Y416620D01*
X472060D01*
Y437700D01*
D02*
G37*
G36*
X412904Y576326D02*
X410564D01*
X408303Y575720D01*
X406275Y574550D01*
X404620Y572895D01*
X403450Y570867D01*
X402844Y568606D01*
Y566266D01*
X403450Y564005D01*
X404620Y561977D01*
X406275Y560322D01*
X408303Y559152D01*
X410564Y558546D01*
X412904D01*
X415024Y559114D01*
X417602Y556536D01*
Y434720D01*
X411620D01*
Y413640D01*
X430700D01*
Y434720D01*
X424719D01*
Y558010D01*
X424448Y559371D01*
X423677Y560526D01*
X420056Y564146D01*
X420624Y566266D01*
Y568606D01*
X420018Y570867D01*
X418848Y572895D01*
X417193Y574550D01*
X415165Y575720D01*
X412904Y576326D01*
D02*
G37*
G36*
X400700Y434720D02*
X381620D01*
Y413640D01*
X400700D01*
Y434720D01*
D02*
G37*
G36*
X303559Y385318D02*
X301218D01*
X298957Y384712D01*
X296930Y383542D01*
X295275Y381887D01*
X294104Y379859D01*
X293498Y377598D01*
Y375258D01*
X294104Y372997D01*
X295275Y370969D01*
X296930Y369314D01*
X298957Y368144D01*
X301218Y367538D01*
X303559D01*
X305820Y368144D01*
X307847Y369314D01*
X309502Y370969D01*
X310673Y372997D01*
X311278Y375258D01*
Y377598D01*
X310673Y379859D01*
X309502Y381887D01*
X307847Y383542D01*
X305820Y384712D01*
X303559Y385318D01*
D02*
G37*
G36*
X258726Y382379D02*
X256386D01*
X254125Y381773D01*
X252097Y380602D01*
X250442Y378947D01*
X249272Y376920D01*
X248666Y374659D01*
Y372318D01*
X249234Y370199D01*
X248944Y369909D01*
X248172Y368754D01*
X247902Y367393D01*
Y358520D01*
X241920D01*
Y337440D01*
X261000D01*
Y358520D01*
X255018D01*
Y363733D01*
X256208Y364646D01*
X256386Y364599D01*
X258726D01*
X260987Y365205D01*
X263015Y366375D01*
X264670Y368030D01*
X265840Y370057D01*
X266446Y372318D01*
Y374659D01*
X265840Y376920D01*
X264670Y378947D01*
X263015Y380602D01*
X260987Y381773D01*
X258726Y382379D01*
D02*
G37*
G36*
X32750Y367401D02*
X24750D01*
X22912Y367159D01*
X21200Y366449D01*
X19729Y365321D01*
X18601Y363850D01*
X17891Y362138D01*
X17650Y360300D01*
X17891Y358462D01*
X18601Y356750D01*
X19729Y355279D01*
X21200Y354151D01*
X22912Y353441D01*
X24750Y353199D01*
X32750D01*
X34588Y353441D01*
X36301Y354151D01*
X37771Y355279D01*
X38900Y356750D01*
X39609Y358462D01*
X39851Y360300D01*
X39609Y362138D01*
X38900Y363850D01*
X37771Y365321D01*
X36301Y366449D01*
X34588Y367159D01*
X32750Y367401D01*
D02*
G37*
G36*
X98960Y462280D02*
X96620D01*
X94359Y461674D01*
X92331Y460504D01*
X90676Y458849D01*
X89506Y456821D01*
X88900Y454560D01*
Y452220D01*
X89506Y449959D01*
X90676Y447931D01*
X92331Y446276D01*
X94232Y445179D01*
Y410280D01*
X94502Y408918D01*
X95274Y407763D01*
X110981Y392056D01*
Y356810D01*
X105000D01*
Y335730D01*
X124080D01*
Y356810D01*
X118098D01*
Y393530D01*
X117827Y394892D01*
X117056Y396046D01*
X106758Y406344D01*
X107332Y407730D01*
X124080D01*
Y428810D01*
X105000D01*
Y410062D01*
X103614Y409488D01*
X101348Y411754D01*
Y445179D01*
X103249Y446276D01*
X104904Y447931D01*
X106074Y449959D01*
X106680Y452220D01*
Y454560D01*
X106074Y456821D01*
X104904Y458849D01*
X103249Y460504D01*
X101221Y461674D01*
X98960Y462280D01*
D02*
G37*
G36*
X192899Y357250D02*
X173820D01*
Y336170D01*
X174527D01*
X175277Y334871D01*
X175075Y334521D01*
X174470Y332260D01*
Y329920D01*
X175075Y327659D01*
X176246Y325631D01*
X177901Y323976D01*
X179928Y322806D01*
X182189Y322200D01*
X184530D01*
X186791Y322806D01*
X188818Y323976D01*
X190473Y325631D01*
X191644Y327659D01*
X192250Y329920D01*
Y332260D01*
X191644Y334521D01*
X191442Y334871D01*
X192192Y336170D01*
X192899D01*
Y357250D01*
D02*
G37*
G36*
X502060Y365700D02*
X482980D01*
Y344620D01*
X488962D01*
Y320440D01*
X478980D01*
Y301860D01*
X492560D01*
Y312908D01*
X495036Y315384D01*
X495036Y315384D01*
X495808Y316539D01*
X496079Y317900D01*
Y344620D01*
X502060D01*
Y365700D01*
D02*
G37*
G36*
X430700Y362720D02*
X411620D01*
Y341640D01*
X417602D01*
Y320440D01*
X411670D01*
Y301860D01*
X425250D01*
Y320440D01*
X424719D01*
Y341640D01*
X430700D01*
Y362720D01*
D02*
G37*
G36*
X392330Y376690D02*
X389990D01*
X387729Y376084D01*
X385701Y374914D01*
X384046Y373259D01*
X382876Y371231D01*
X382270Y368970D01*
Y366630D01*
X382876Y364369D01*
X383078Y364019D01*
X382328Y362720D01*
X381620D01*
Y342482D01*
X381054Y341412D01*
X380335Y341122D01*
X378560D01*
X376299Y340516D01*
X374271Y339346D01*
X372616Y337691D01*
X371446Y335663D01*
X370840Y333402D01*
Y331062D01*
X371446Y328801D01*
X372616Y326773D01*
X374271Y325118D01*
X376299Y323948D01*
X378560Y323342D01*
X380900D01*
X383161Y323948D01*
X385189Y325118D01*
X386844Y326773D01*
X387492Y327896D01*
X389261Y328083D01*
X395678Y321666D01*
X395170Y320440D01*
X395170D01*
Y301860D01*
X408750D01*
Y320440D01*
X405514D01*
X405248Y321778D01*
X404476Y322932D01*
X392660Y334748D01*
X391506Y335519D01*
X390144Y335790D01*
X387941D01*
X386844Y337691D01*
X385189Y339346D01*
X383813Y340140D01*
X384215Y341640D01*
X400700D01*
Y362720D01*
X399992D01*
X399242Y364019D01*
X399444Y364369D01*
X400050Y366630D01*
Y368970D01*
X399444Y371231D01*
X398274Y373259D01*
X396619Y374914D01*
X394591Y376084D01*
X392330Y376690D01*
D02*
G37*
G36*
X322720Y374590D02*
X320379D01*
X318118Y373984D01*
X316091Y372814D01*
X314436Y371159D01*
X313266Y369132D01*
X312660Y366870D01*
Y364530D01*
X313266Y362269D01*
X313467Y361919D01*
X312717Y360620D01*
X312010D01*
Y339540D01*
X312747D01*
X312946Y339245D01*
X313276Y338040D01*
X311910Y336675D01*
X310740Y334647D01*
X310134Y332386D01*
Y330046D01*
X310740Y327785D01*
X311910Y325757D01*
X313565Y324102D01*
X315593Y322932D01*
X317854Y322326D01*
X320194D01*
X322314Y322894D01*
X325320Y319888D01*
Y301860D01*
X338900D01*
Y320440D01*
X334764D01*
X334626Y320646D01*
X327346Y327926D01*
X327914Y330046D01*
Y332386D01*
X327308Y334647D01*
X326138Y336675D01*
X324772Y338040D01*
X325102Y339245D01*
X325301Y339540D01*
X331090D01*
Y360620D01*
X330382D01*
X329632Y361919D01*
X329834Y362269D01*
X330440Y364530D01*
Y366870D01*
X329834Y369132D01*
X328664Y371159D01*
X327008Y372814D01*
X324981Y373984D01*
X322720Y374590D01*
D02*
G37*
G36*
X537766Y320910D02*
X534114D01*
X530532Y320198D01*
X527158Y318800D01*
X524121Y316771D01*
X521539Y314189D01*
X519510Y311152D01*
X518112Y307778D01*
X517400Y304196D01*
Y300544D01*
X518112Y296962D01*
X519510Y293588D01*
X521539Y290552D01*
X524121Y287969D01*
X527158Y285940D01*
X530532Y284543D01*
X534114Y283830D01*
X537766D01*
X541348Y284543D01*
X544722Y285940D01*
X547759Y287969D01*
X550341Y290552D01*
X552370Y293588D01*
X553768Y296962D01*
X554480Y300544D01*
Y304196D01*
X553768Y307778D01*
X552370Y311152D01*
X550341Y314189D01*
X547759Y316771D01*
X544722Y318800D01*
X541348Y320198D01*
X537766Y320910D01*
D02*
G37*
G36*
X13108Y300990D02*
X10768D01*
X8507Y300384D01*
X6479Y299214D01*
X4824Y297559D01*
X3654Y295531D01*
X3048Y293270D01*
Y290930D01*
X3654Y288669D01*
X4824Y286641D01*
X6479Y284986D01*
X8507Y283816D01*
X10768Y283210D01*
X13108D01*
X15369Y283816D01*
X17397Y284986D01*
X19052Y286641D01*
X20222Y288669D01*
X20828Y290930D01*
Y293270D01*
X20222Y295531D01*
X19052Y297559D01*
X17397Y299214D01*
X15369Y300384D01*
X13108Y300990D01*
D02*
G37*
G36*
X291000Y358520D02*
X271921D01*
Y337440D01*
X277902D01*
Y319170D01*
X271970D01*
Y300590D01*
X284175D01*
X284924Y300590D01*
X285293Y299211D01*
X284863Y298823D01*
X284273Y298233D01*
X283208Y297168D01*
X282038Y295141D01*
X281432Y292880D01*
Y290539D01*
X282038Y288278D01*
X283208Y286251D01*
X284863Y284596D01*
X286891Y283425D01*
X289152Y282819D01*
X291492D01*
X293753Y283425D01*
X295781Y284596D01*
X297436Y286251D01*
X298606Y288278D01*
X299212Y290539D01*
Y292880D01*
X298606Y295141D01*
X297436Y297168D01*
X295781Y298823D01*
X293753Y299993D01*
X291492Y300599D01*
X289152D01*
X287986Y300287D01*
X286619Y300057D01*
X286619Y300057D01*
X286619D01*
X285550Y300951D01*
X285550Y301831D01*
Y319170D01*
X285019D01*
Y337440D01*
X291000D01*
Y358520D01*
D02*
G37*
G36*
X317908Y298704D02*
X315568D01*
X313307Y298098D01*
X311279Y296928D01*
X309624Y295273D01*
X308454Y293245D01*
X307848Y290984D01*
Y288644D01*
X308454Y286383D01*
X309624Y284355D01*
X311279Y282700D01*
X313307Y281530D01*
X315568Y280924D01*
X317908D01*
X320169Y281530D01*
X322197Y282700D01*
X323852Y284355D01*
X325022Y286383D01*
X325628Y288644D01*
Y290984D01*
X325022Y293245D01*
X323852Y295273D01*
X322197Y296928D01*
X320169Y298098D01*
X317908Y298704D01*
D02*
G37*
G36*
X476060Y320440D02*
X462480D01*
Y301860D01*
X465712D01*
Y293116D01*
X465983Y291754D01*
X466754Y290600D01*
X470126Y287227D01*
X470020Y285757D01*
X468251Y284736D01*
X466596Y283081D01*
X465426Y281053D01*
X464820Y278792D01*
Y276452D01*
X465426Y274191D01*
X466596Y272163D01*
X468251Y270508D01*
X470279Y269338D01*
X472540Y268732D01*
X474880D01*
X477141Y269338D01*
X479169Y270508D01*
X480824Y272163D01*
X481994Y274191D01*
X482600Y276452D01*
Y278792D01*
X481994Y281053D01*
X480824Y283081D01*
X479169Y284736D01*
X477268Y285833D01*
Y288676D01*
X477268Y288676D01*
X476997Y290038D01*
X476226Y291192D01*
X476226Y291192D01*
X472828Y294590D01*
Y301860D01*
X476060D01*
Y320440D01*
D02*
G37*
G36*
X84228Y278384D02*
X81888D01*
X79627Y277778D01*
X77599Y276608D01*
X75944Y274953D01*
X74774Y272925D01*
X74168Y270664D01*
Y268324D01*
X74774Y266063D01*
X75944Y264035D01*
X77599Y262380D01*
X79627Y261210D01*
X81888Y260604D01*
X84228D01*
X86489Y261210D01*
X88517Y262380D01*
X90172Y264035D01*
X91342Y266063D01*
X91948Y268324D01*
Y270664D01*
X91342Y272925D01*
X90172Y274953D01*
X88517Y276608D01*
X86489Y277778D01*
X84228Y278384D01*
D02*
G37*
G36*
X17426Y269494D02*
X15086D01*
X12825Y268888D01*
X10797Y267718D01*
X9142Y266063D01*
X7972Y264035D01*
X7366Y261774D01*
Y259434D01*
X7972Y257173D01*
X9142Y255145D01*
X10797Y253490D01*
X12825Y252320D01*
X15086Y251714D01*
X17426D01*
X19687Y252320D01*
X21715Y253490D01*
X23370Y255145D01*
X24540Y257173D01*
X25146Y259434D01*
Y261774D01*
X24540Y264035D01*
X23370Y266063D01*
X21715Y267718D01*
X19687Y268888D01*
X17426Y269494D01*
D02*
G37*
G36*
X546290Y230421D02*
X525590D01*
X522225Y229978D01*
X519089Y228679D01*
X516397Y226613D01*
X514331Y223921D01*
X513112Y220978D01*
X422086D01*
X422085Y220978D01*
X420724Y220707D01*
X419569Y219936D01*
X376812Y177178D01*
X303163D01*
X302543Y178678D01*
X303567Y180452D01*
X304220Y182889D01*
Y185411D01*
X303567Y187848D01*
X302306Y190032D01*
X300522Y191816D01*
X298338Y193077D01*
X295901Y193730D01*
X293379D01*
X290942Y193077D01*
X288758Y191816D01*
X286974Y190032D01*
X285713Y187848D01*
X285060Y185411D01*
Y182889D01*
X285713Y180452D01*
X286737Y178678D01*
X286117Y177178D01*
X281644D01*
X278495Y180327D01*
X278567Y180452D01*
X279220Y182889D01*
Y185411D01*
X278567Y187848D01*
X277306Y190032D01*
X275522Y191816D01*
X273337Y193077D01*
X270901Y193730D01*
X268379D01*
X265942Y193077D01*
X263757Y191816D01*
X261974Y190032D01*
X260713Y187848D01*
X260060Y185411D01*
Y182889D01*
X260713Y180452D01*
X261974Y178268D01*
X263757Y176484D01*
X265942Y175223D01*
X268379Y174570D01*
X270901D01*
X273337Y175223D01*
X273463Y175295D01*
X277653Y171104D01*
X277654Y171104D01*
X278808Y170333D01*
X280170Y170062D01*
X378286D01*
X379647Y170333D01*
X380802Y171104D01*
X423559Y213862D01*
X513112D01*
X514331Y210919D01*
X516397Y208227D01*
X519089Y206161D01*
X522225Y204862D01*
X525590Y204419D01*
X546290D01*
X549655Y204862D01*
X552791Y206161D01*
X555483Y208227D01*
X557549Y210919D01*
X558848Y214055D01*
X559291Y217420D01*
X558848Y220785D01*
X557549Y223921D01*
X555483Y226613D01*
X552791Y228679D01*
X549655Y229978D01*
X546290Y230421D01*
D02*
G37*
G36*
X102950Y210970D02*
X86870D01*
Y204218D01*
X77270D01*
Y209950D01*
X63690D01*
Y191370D01*
X77270D01*
Y197102D01*
X86870D01*
Y192890D01*
X102950D01*
Y210970D01*
D02*
G37*
G36*
X60770Y209950D02*
X47190D01*
Y204218D01*
X38494D01*
X38344Y204479D01*
X36689Y206134D01*
X34662Y207304D01*
X32401Y207910D01*
X30060D01*
X27799Y207304D01*
X25772Y206134D01*
X24116Y204479D01*
X22946Y202452D01*
X22340Y200191D01*
Y197850D01*
X22946Y195589D01*
X24116Y193562D01*
X25772Y191906D01*
X27799Y190736D01*
X30060Y190130D01*
X32401D01*
X34662Y190736D01*
X36689Y191906D01*
X38344Y193562D01*
X39515Y195589D01*
X39920Y197102D01*
X47190D01*
Y191370D01*
X60770D01*
Y209950D01*
D02*
G37*
G36*
X322988Y216662D02*
X320648D01*
X318387Y216056D01*
X316359Y214886D01*
X314704Y213231D01*
X313534Y211203D01*
X312928Y208942D01*
Y206602D01*
X313534Y204341D01*
X314704Y202313D01*
X316359Y200658D01*
X318387Y199488D01*
X320648Y198882D01*
X322988D01*
X325249Y199488D01*
X327277Y200658D01*
X328932Y202313D01*
X330102Y204341D01*
X330708Y206602D01*
Y208942D01*
X330102Y211203D01*
X328932Y213231D01*
X327277Y214886D01*
X325249Y216056D01*
X322988Y216662D01*
D02*
G37*
G36*
X123950Y210970D02*
X107870D01*
Y192890D01*
X112352D01*
Y181760D01*
X107870D01*
Y163680D01*
X123950D01*
Y169162D01*
X133350D01*
X134712Y169433D01*
X135866Y170204D01*
X154382Y188720D01*
X195497D01*
X196594Y186819D01*
X198249Y185164D01*
X200277Y183994D01*
X202538Y183388D01*
X204878D01*
X207139Y183994D01*
X209167Y185164D01*
X210822Y186819D01*
X211992Y188847D01*
X212598Y191108D01*
Y193448D01*
X211992Y195709D01*
X210822Y197737D01*
X209167Y199392D01*
X207139Y200562D01*
X204878Y201168D01*
X202538D01*
X200277Y200562D01*
X198249Y199392D01*
X196594Y197737D01*
X195497Y195836D01*
X152908D01*
X151546Y195565D01*
X150392Y194794D01*
X150392Y194794D01*
X131876Y176278D01*
X123950D01*
Y181760D01*
X119468D01*
Y192890D01*
X123950D01*
Y210970D01*
D02*
G37*
G36*
X102950Y181760D02*
X86870D01*
Y175008D01*
X77270D01*
Y180740D01*
X63690D01*
Y162160D01*
X77270D01*
Y167892D01*
X86870D01*
Y163680D01*
X102950D01*
Y181760D01*
D02*
G37*
G36*
X60770Y180740D02*
X47190D01*
Y175008D01*
X42501D01*
X41404Y176909D01*
X39749Y178564D01*
X37721Y179734D01*
X35460Y180340D01*
X33120D01*
X30859Y179734D01*
X28831Y178564D01*
X27176Y176909D01*
X26006Y174881D01*
X25400Y172620D01*
Y170280D01*
X26006Y168019D01*
X27176Y165991D01*
X28831Y164336D01*
X30859Y163166D01*
X33120Y162560D01*
X35460D01*
X37721Y163166D01*
X39749Y164336D01*
X41404Y165991D01*
X42501Y167892D01*
X47190D01*
Y162160D01*
X60770D01*
Y180740D01*
D02*
G37*
G36*
X254220Y193730D02*
X235060D01*
Y174570D01*
X254220D01*
Y193730D01*
D02*
G37*
G36*
X475280Y871000D02*
X444200D01*
Y854920D01*
X475280D01*
Y871000D01*
D02*
G37*
G36*
X248820Y982903D02*
X246480D01*
X244219Y982297D01*
X242191Y981127D01*
X240536Y979471D01*
X239366Y977444D01*
X238760Y975183D01*
Y972842D01*
X239366Y970581D01*
X240536Y968554D01*
X242191Y966899D01*
X244219Y965729D01*
X246480Y965123D01*
X248820D01*
X251081Y965729D01*
X253109Y966899D01*
X254764Y968554D01*
X255934Y970581D01*
X256540Y972842D01*
Y975183D01*
X255934Y977444D01*
X254764Y979471D01*
X253109Y981127D01*
X251081Y982297D01*
X248820Y982903D01*
D02*
G37*
G36*
X160682Y642874D02*
X158342D01*
X156081Y642268D01*
X154053Y641098D01*
X152398Y639443D01*
X151228Y637415D01*
X150622Y635154D01*
Y632814D01*
X151228Y630553D01*
X152398Y628525D01*
X154053Y626870D01*
X156081Y625700D01*
X158342Y625094D01*
X160682D01*
X162943Y625700D01*
X164971Y626870D01*
X166626Y628525D01*
X167796Y630553D01*
X168402Y632814D01*
Y635154D01*
X167796Y637415D01*
X166626Y639443D01*
X164971Y641098D01*
X162943Y642268D01*
X160682Y642874D01*
D02*
G37*
G36*
X296064Y508254D02*
X293724D01*
X291463Y507648D01*
X289435Y506478D01*
X287780Y504823D01*
X286610Y502795D01*
X286004Y500534D01*
Y498194D01*
X286610Y495933D01*
X287780Y493905D01*
X289435Y492250D01*
X291463Y491080D01*
X293724Y490474D01*
X296064D01*
X298325Y491080D01*
X300353Y492250D01*
X302008Y493905D01*
X303178Y495933D01*
X303784Y498194D01*
Y500534D01*
X303178Y502795D01*
X302008Y504823D01*
X300353Y506478D01*
X298325Y507648D01*
X296064Y508254D01*
D02*
G37*
G36*
X331090Y432620D02*
X312010D01*
Y421587D01*
X310544Y421261D01*
X309374Y423289D01*
X307719Y424944D01*
X305691Y426114D01*
X303430Y426720D01*
X301090D01*
X298829Y426114D01*
X296801Y424944D01*
X295146Y423289D01*
X293976Y421261D01*
X293370Y419000D01*
Y416660D01*
X293976Y414399D01*
X295146Y412371D01*
X296801Y410716D01*
X298829Y409546D01*
X301090Y408940D01*
X303430D01*
X305691Y409546D01*
X307719Y410716D01*
X309374Y412371D01*
X310544Y414399D01*
X312010Y414073D01*
Y411540D01*
X331090D01*
Y432620D01*
D02*
G37*
G36*
X261000Y430520D02*
X241920D01*
Y409440D01*
X261000D01*
Y430520D01*
D02*
G37*
G36*
X192899Y429250D02*
X173820D01*
Y408170D01*
X192899D01*
Y429250D01*
D02*
G37*
G36*
X66652Y380190D02*
X64448D01*
X62412Y379347D01*
X60853Y377788D01*
X60010Y375752D01*
Y373548D01*
X60853Y371512D01*
X62412Y369953D01*
X64448Y369110D01*
X66652D01*
X68688Y369953D01*
X70246Y371512D01*
X71090Y373548D01*
Y375752D01*
X70246Y377788D01*
X68688Y379347D01*
X66652Y380190D01*
D02*
G37*
G36*
X75950Y367401D02*
X64950D01*
X63112Y367159D01*
X61400Y366449D01*
X59929Y365321D01*
X58801Y363850D01*
X58091Y362138D01*
X57849Y360300D01*
X58091Y358462D01*
X58801Y356750D01*
X59929Y355279D01*
X61400Y354151D01*
X63112Y353441D01*
X64950Y353199D01*
X75950D01*
X77788Y353441D01*
X79500Y354151D01*
X80971Y355279D01*
X82099Y356750D01*
X82809Y358462D01*
X83051Y360300D01*
X82809Y362138D01*
X82099Y363850D01*
X80971Y365321D01*
X79500Y366449D01*
X77788Y367159D01*
X75950Y367401D01*
D02*
G37*
%LPD*%
D13*
X39370Y775970D02*
D03*
X207010Y737870D02*
D03*
X214630Y778510D02*
D03*
D19*
X79370Y775970D02*
D03*
X62870D02*
D03*
X522450Y481330D02*
D03*
Y454660D02*
D03*
X469270Y311150D02*
D03*
X401960D02*
D03*
X332110D02*
D03*
X262260Y309880D02*
D03*
X189870D02*
D03*
X120020Y308610D02*
D03*
X53980Y171450D02*
D03*
X70480D02*
D03*
X53980Y200660D02*
D03*
X70480D02*
D03*
X184790Y775970D02*
D03*
X201290D02*
D03*
X14610Y486410D02*
D03*
X31110D02*
D03*
X538950Y481330D02*
D03*
Y454660D02*
D03*
X239400Y486410D02*
D03*
X255900D02*
D03*
X136520Y308610D02*
D03*
X418460Y311150D02*
D03*
X348610D02*
D03*
X206370Y309880D02*
D03*
X485770Y311150D02*
D03*
X278760Y309880D02*
D03*
D20*
X391160Y352180D02*
D03*
Y424180D02*
D03*
X421160D02*
D03*
Y352180D02*
D03*
X462520Y355160D02*
D03*
X321550Y350080D02*
D03*
X251460Y347980D02*
D03*
X183360Y346710D02*
D03*
X114540Y346270D02*
D03*
X251460Y419980D02*
D03*
X281460D02*
D03*
Y347980D02*
D03*
X462520Y427160D02*
D03*
X492520D02*
D03*
Y355160D02*
D03*
X321550Y422080D02*
D03*
X351550D02*
D03*
Y350080D02*
D03*
X183360Y418710D02*
D03*
X213360D02*
D03*
Y346710D02*
D03*
X114540Y418270D02*
D03*
X144540D02*
D03*
Y346270D02*
D03*
D21*
X41220Y710410D02*
D03*
Y698410D02*
D03*
Y686410D02*
D03*
Y674410D02*
D03*
Y662410D02*
D03*
Y650410D02*
D03*
Y638410D02*
D03*
Y626410D02*
D03*
Y614410D02*
D03*
Y590410D02*
D03*
Y578410D02*
D03*
Y566410D02*
D03*
Y554410D02*
D03*
X221220D02*
D03*
Y566410D02*
D03*
Y578410D02*
D03*
Y590410D02*
D03*
Y602410D02*
D03*
Y614410D02*
D03*
Y626410D02*
D03*
Y638410D02*
D03*
Y650410D02*
D03*
Y662410D02*
D03*
Y674410D02*
D03*
Y686410D02*
D03*
Y698410D02*
D03*
Y710410D02*
D03*
X41220Y602410D02*
D03*
D22*
X59220Y540410D02*
D03*
X71220D02*
D03*
X83220D02*
D03*
X95220D02*
D03*
X107220D02*
D03*
X119220D02*
D03*
X131220D02*
D03*
X143220D02*
D03*
X155220D02*
D03*
X167220D02*
D03*
X179220D02*
D03*
X191220D02*
D03*
X203220Y724410D02*
D03*
X191220D02*
D03*
X167220D02*
D03*
X155220D02*
D03*
X143220D02*
D03*
X131220D02*
D03*
X119220D02*
D03*
X107220D02*
D03*
X95220D02*
D03*
X83220D02*
D03*
X71220D02*
D03*
X59220D02*
D03*
X203220Y540410D02*
D03*
X179220Y724410D02*
D03*
D23*
X109220Y613410D02*
D03*
D24*
X86220Y682410D02*
D03*
D25*
X613740Y962960D02*
D03*
X459740Y942960D02*
D03*
X613740Y822960D02*
D03*
X459740Y922960D02*
D03*
Y902960D02*
D03*
Y882960D02*
D03*
Y862960D02*
D03*
Y842960D02*
D03*
Y822960D02*
D03*
X613740Y842960D02*
D03*
Y862960D02*
D03*
Y882960D02*
D03*
Y902960D02*
D03*
Y922960D02*
D03*
Y942960D02*
D03*
D26*
X460740Y962960D02*
D03*
D27*
X292400Y825500D02*
D03*
X146350Y764540D02*
D03*
X266400Y825500D02*
D03*
X120350Y764540D02*
D03*
D28*
X214950Y990100D02*
D03*
X44950D02*
D03*
Y977400D02*
D03*
X214950D02*
D03*
Y964700D02*
D03*
Y952000D02*
D03*
Y939300D02*
D03*
Y926600D02*
D03*
Y913900D02*
D03*
Y901200D02*
D03*
Y888500D02*
D03*
Y875800D02*
D03*
Y863100D02*
D03*
Y850400D02*
D03*
Y837700D02*
D03*
Y825000D02*
D03*
X44950D02*
D03*
Y837700D02*
D03*
Y850400D02*
D03*
Y863100D02*
D03*
Y875800D02*
D03*
Y888500D02*
D03*
Y901200D02*
D03*
Y913900D02*
D03*
Y926600D02*
D03*
Y939300D02*
D03*
Y952000D02*
D03*
Y964700D02*
D03*
D29*
X138300Y933450D02*
D03*
Y915100D02*
D03*
Y896750D02*
D03*
X119950Y933450D02*
D03*
Y896750D02*
D03*
Y915100D02*
D03*
X101600D02*
D03*
Y933450D02*
D03*
Y896750D02*
D03*
D30*
X72800Y815000D02*
D03*
X187100D02*
D03*
X174400D02*
D03*
X161700D02*
D03*
X149000D02*
D03*
X136300D02*
D03*
X123600D02*
D03*
X110900D02*
D03*
X98200D02*
D03*
X85500D02*
D03*
D31*
X68420Y506730D02*
D03*
X48420D02*
D03*
D32*
X115910Y172720D02*
D03*
Y201930D02*
D03*
X94910Y172720D02*
D03*
Y201930D02*
D03*
X560840Y481330D02*
D03*
X581840D02*
D03*
X562110Y455930D02*
D03*
X583110D02*
D03*
D33*
X592070Y608330D02*
D03*
X578870D02*
D03*
D43*
X601490Y730250D02*
D03*
X571990D02*
D03*
X598950Y651510D02*
D03*
X569450D02*
D03*
D48*
X586740Y715000D02*
D03*
X584200Y636260D02*
D03*
D63*
X11751Y823059D02*
G03*
X11757Y822598I9840J-99D01*
G01*
X221827Y785220D02*
G03*
X221342Y785705I-7197J-6710D01*
G01*
X89960Y497630D02*
X90170Y497840D01*
X68420Y506730D02*
X81280D01*
X90170Y497840D01*
X45529Y799022D02*
X45959Y798699D01*
X22860Y826770D02*
X30240Y834150D01*
X45959Y798699D02*
X56329Y793015D01*
X30240Y834150D02*
X35900D01*
X22860Y821690D02*
Y826770D01*
Y821690D02*
X45529Y799022D01*
X93980Y318715D02*
X158949Y253746D01*
X59060Y424093D02*
X93980Y389172D01*
Y318715D02*
Y389172D01*
X56329Y793015D02*
X177787D01*
X177788Y793014D02*
X177788D01*
X166269Y773785D02*
X178816Y761238D01*
X177788Y793014D02*
X184790Y786012D01*
X177787Y793015D02*
X177788Y793014D01*
X166269Y773785D02*
Y783174D01*
X59182Y812292D02*
Y848114D01*
X44950Y850400D02*
X59182Y848114D01*
X11751Y823059D02*
X12192Y866910D01*
X12749Y867467D02*
X33782Y888500D01*
X12192Y866910D02*
X12749Y867467D01*
X11757Y822598D02*
X12192Y810768D01*
X35282Y834768D02*
X37596Y837082D01*
X38214Y837700D01*
X35900Y834150D02*
X38214Y836464D01*
Y837700D01*
X119380Y623570D02*
Y665226D01*
X246380Y528275D02*
Y594360D01*
X281940Y629920D01*
X150590Y432485D02*
X246380Y528275D01*
X251968Y553466D02*
X299974Y601472D01*
X251968Y516890D02*
Y553466D01*
X150590Y424320D02*
Y432485D01*
X144540Y418270D02*
X150590Y424320D01*
X234950Y621284D02*
X261366Y647700D01*
X232592Y554410D02*
X234950Y556768D01*
Y621284D01*
X221220Y554410D02*
X232592D01*
X475050Y444630D02*
Y564576D01*
X474910Y564920D02*
X475050Y564576D01*
X375324Y694708D02*
X375964Y694624D01*
X376509Y694080D01*
X336550Y699770D02*
X375324Y694708D01*
X473867Y567486D02*
X474910Y564920D01*
X376509Y694080D02*
X473867Y567486D01*
X567694Y620014D02*
X578870Y608838D01*
X448818Y620014D02*
X567694D01*
X475050Y444630D02*
X492520Y427160D01*
X411734Y567436D02*
X421160Y558010D01*
Y424180D02*
Y558010D01*
X120020Y308100D02*
Y308610D01*
Y308100D02*
X123320Y304800D01*
X127667D01*
X128780Y303687D01*
Y300414D02*
Y303687D01*
X142215Y298370D02*
X148645Y304800D01*
X192752D01*
Y306998D01*
X128780Y300414D02*
X130824Y298370D01*
X142215D01*
X192752Y301532D02*
X205994Y288290D01*
X192752Y301532D02*
Y304800D01*
X214950Y977400D02*
X217617Y974733D01*
X226687D01*
X307594Y893826D01*
X522732D01*
X202430Y863100D02*
X214950D01*
X185420Y880110D02*
X202430Y863100D01*
X261366Y647700D02*
X285750D01*
X592070Y607330D02*
Y608330D01*
X589280Y604540D02*
X592070Y607330D01*
X569976Y534162D02*
X589280Y553466D01*
Y604540D01*
X109220Y613410D02*
X119380Y623570D01*
X190500Y675640D02*
X198220Y683360D01*
X40537Y774803D02*
X44347D01*
X44450Y774700D01*
X39370Y775970D02*
X40537Y774803D01*
X35560Y787400D02*
X107696D01*
X7366Y759206D02*
X35560Y787400D01*
X7366Y502666D02*
Y759206D01*
X44450Y774700D02*
X61600D01*
X62870Y775970D01*
X31110Y459740D02*
X45212Y445638D01*
Y346964D02*
Y445638D01*
X138430Y253746D02*
X158949D01*
X45212Y346964D02*
X138430Y253746D01*
X31110Y459740D02*
Y473842D01*
X107696Y787400D02*
X120350Y774746D01*
X206270Y737130D02*
X207010Y737870D01*
X203220Y724410D02*
X206270Y727460D01*
Y737130D01*
X220107Y773433D02*
X221220Y772319D01*
X206215Y799879D02*
X221342Y785705D01*
X221220Y710410D02*
Y772319D01*
X234950Y664464D02*
Y771144D01*
X214630Y778510D02*
X220107Y773433D01*
X115693Y799879D02*
X206215D01*
X221827Y785220D02*
X234950Y771144D01*
X95250Y563880D02*
X109220Y577850D01*
X95250Y558800D02*
Y563880D01*
X95220Y558770D02*
X95250Y558800D01*
X95220Y540410D02*
Y558770D01*
X128853Y465844D02*
X129540Y465157D01*
X146050Y392430D02*
X344678D01*
X129540Y408940D02*
X146050Y392430D01*
X120904Y472440D02*
X128853Y465844D01*
X129540Y408940D02*
Y465157D01*
X97790Y410280D02*
Y453390D01*
Y410280D02*
X114540Y393530D01*
X248920Y466748D02*
Y474390D01*
X244260Y459166D02*
Y462089D01*
X248920Y466748D01*
X189870Y309880D02*
X192752Y306998D01*
X193040Y850900D02*
X214450D01*
X214950Y850400D01*
X175514Y847852D02*
X176022Y847344D01*
X175514Y847852D02*
Y944880D01*
X141478Y905925D02*
Y911922D01*
X138300Y915100D02*
X141478Y911922D01*
X138300Y915100D02*
Y924275D01*
X101600Y915100D02*
Y933450D01*
X262260Y268092D02*
X265176Y265176D01*
X252222Y278130D02*
X262260Y268092D01*
X205994Y288290D02*
X216154Y278130D01*
X158949Y253746D02*
X349504D01*
X42926Y755904D02*
X120350D01*
X45212Y445638D02*
X59060Y431790D01*
X45212Y445638D02*
Y459740D01*
X158949Y253746D02*
X172665Y240030D01*
X31110Y478658D02*
Y486410D01*
Y473842D02*
Y478658D01*
X460756Y962960D02*
X463296D01*
X460740D02*
X460756D01*
Y942960D02*
Y962960D01*
X179220Y708660D02*
Y724410D01*
Y701294D02*
Y708660D01*
X164592Y668782D02*
Y694032D01*
X138300Y951230D02*
Y955680D01*
Y933450D02*
Y951230D01*
Y905925D02*
X141478D01*
X185316Y564238D02*
X190942Y558611D01*
X125984Y623570D02*
X185316Y564238D01*
X583184Y441706D02*
Y455930D01*
X235590Y832998D02*
X240284Y837692D01*
X227592Y825000D02*
X235590Y832998D01*
X578870Y608838D02*
Y630680D01*
X201290Y767456D02*
Y775970D01*
Y755325D02*
Y767456D01*
X39700Y529666D02*
X59220D01*
X14610Y504576D02*
Y739526D01*
Y486410D02*
Y504576D01*
X182390Y824230D02*
X187100D01*
X115910Y172720D02*
Y201930D01*
X216154Y278130D02*
X252222D01*
X491820Y922960D02*
X492760Y922020D01*
X459740Y922960D02*
X491820D01*
X119950Y896750D02*
X129125D01*
X157501Y974881D02*
Y975360D01*
X162194Y980053D01*
X162673D01*
X172720Y990100D01*
X214950D01*
X138300Y933450D02*
X138430Y951230D01*
X27330Y990100D02*
X44950D01*
X138300Y951230D02*
X138430D01*
X138300Y955680D02*
X157501Y974881D01*
X251460Y347980D02*
Y367393D01*
X257556Y373489D01*
X41220Y602410D02*
X98220D01*
X109220Y613410D01*
Y659130D01*
X86220Y682410D02*
X109220Y659130D01*
X119380Y623570D02*
X125984D01*
X196276Y558611D02*
X203220Y551668D01*
Y540410D02*
Y551668D01*
X300990Y858012D02*
Y878840D01*
X227830Y952000D02*
X300990Y878840D01*
X214950Y952000D02*
X227830D01*
X191220Y540410D02*
Y550968D01*
X182626Y559562D02*
X191220Y550968D01*
X170180Y559562D02*
X182626D01*
X581840Y481330D02*
Y521462D01*
X206300Y578410D02*
X221220D01*
X196342Y568452D02*
X206300Y578410D01*
X583110Y455930D02*
X583184D01*
X240284Y837692D02*
X274828D01*
X279400Y833120D01*
Y784606D02*
Y833120D01*
Y784606D02*
X306832Y757174D01*
Y685546D02*
Y757174D01*
Y685546D02*
X362336Y630042D01*
Y410088D02*
Y630042D01*
X344678Y392430D02*
X362336Y410088D01*
X167220Y724410D02*
Y737870D01*
X158330Y746760D02*
X167220Y737870D01*
X133350Y746760D02*
X158330D01*
X586740Y702056D02*
Y715000D01*
X34290Y171450D02*
X53980D01*
X204110Y837700D02*
X214950D01*
X201439Y835029D02*
X204110Y837700D01*
X201439Y819076D02*
Y835029D01*
Y819076D02*
X255050Y765465D01*
Y726660D02*
Y765465D01*
Y726660D02*
X351550Y630160D01*
Y422080D02*
Y630160D01*
X27432Y901200D02*
X44950D01*
X169496Y602410D02*
X221220D01*
X130556Y641350D02*
X169496Y602410D01*
X207264Y674410D02*
X221220D01*
X186650Y653796D02*
X207264Y674410D01*
X154432Y653796D02*
X186650D01*
X118618Y689610D02*
X154432Y653796D01*
X118618Y689610D02*
Y705358D01*
X90678Y833882D02*
X98200Y826360D01*
Y815000D02*
Y826360D01*
X44950Y863100D02*
X73152D01*
X84582Y874530D01*
Y934720D01*
X148082Y998220D01*
X286258D01*
X381518Y902960D01*
X459740D01*
X187100Y815000D02*
Y824230D01*
X182390D02*
Y828548D01*
X162502D02*
X182390D01*
X160562Y830487D02*
X162502Y828548D01*
X160562Y830487D02*
Y964473D01*
X167386Y971296D01*
X459740Y882960D02*
X491490D01*
X551866Y922960D02*
X613740D01*
X522732Y893826D02*
X551866Y922960D01*
X214950Y875800D02*
X243070D01*
X281178Y837692D01*
X301498D01*
X333248Y805942D01*
Y736854D02*
Y805942D01*
Y736854D02*
X341376Y728726D01*
X435356D01*
X558800Y852170D01*
X627888D01*
X630428Y854710D01*
Y940816D01*
X628284Y942960D02*
X630428Y940816D01*
X613740Y942960D02*
X628284D01*
X281460Y419980D02*
Y461236D01*
X271046Y471650D02*
X281460Y461236D01*
X33782Y888500D02*
X44950D01*
Y875800D02*
X62222D01*
X62230Y875792D01*
X299974Y601472D02*
Y619760D01*
X213360Y478282D02*
X251968Y516890D01*
X213360Y418710D02*
Y478282D01*
X485770Y311150D02*
X492520Y317900D01*
Y355160D01*
X136520Y308610D02*
Y319400D01*
X144540Y327420D01*
Y346270D01*
X191220Y745255D02*
X201290Y755325D01*
X191220Y724410D02*
Y745255D01*
X32870Y200660D02*
X53980D01*
X31230Y199020D02*
X32870Y200660D01*
X584200Y636010D02*
Y636260D01*
X578870Y630680D02*
X584200Y636010D01*
X218170Y683360D02*
X221220Y686410D01*
X198220Y683360D02*
X218170D01*
X239400Y483910D02*
X248920Y474390D01*
X239400Y483910D02*
Y486410D01*
X578870Y608330D02*
Y608838D01*
X41220Y614410D02*
X56896D01*
X61722Y619236D01*
Y685292D01*
X14610Y504576D02*
X39700Y529666D01*
X59220D02*
Y540410D01*
X79370Y768096D02*
Y775970D01*
X73650Y762376D02*
X79370Y768096D01*
X37460Y762376D02*
X73650D01*
X14610Y739526D02*
X37460Y762376D01*
X120350Y764540D02*
Y774746D01*
X6858Y502158D02*
X7366Y502666D01*
X6858Y475996D02*
Y502158D01*
Y475996D02*
X28448D01*
X31110Y478658D01*
X520502Y882960D02*
X613740D01*
X478282Y840740D02*
X520502Y882960D01*
X478282Y795274D02*
Y840740D01*
X420116Y737108D02*
X478282Y795274D01*
X365760Y737108D02*
X420116D01*
X356616Y746252D02*
X365760Y737108D01*
X356616Y746252D02*
Y791586D01*
X306070Y842132D02*
X356616Y791586D01*
X283709Y842132D02*
X306070D01*
X237341Y888500D02*
X283709Y842132D01*
X214950Y888500D02*
X237341D01*
X24138Y964700D02*
X44950D01*
X16002Y956564D02*
X24138Y964700D01*
X190942Y558611D02*
X196276D01*
X221220Y662410D02*
X232896D01*
X234950Y664464D01*
X110900Y804672D02*
X115693Y799879D01*
X110900Y804672D02*
Y815000D01*
X184790Y775970D02*
Y786012D01*
X38214Y837700D02*
X44950D01*
X255900Y486410D02*
Y488310D01*
X314706Y547116D01*
Y658622D01*
X247650Y725678D02*
X314706Y658622D01*
X247650Y725678D02*
Y766585D01*
X196850Y817385D02*
X247650Y766585D01*
X196850Y817385D02*
Y824992D01*
X186310Y835533D02*
X196850Y824992D01*
X170688Y835533D02*
X186310D01*
X165608Y840612D02*
X170688Y835533D01*
X165608Y840612D02*
Y953262D01*
X179578Y967232D01*
X194310D01*
X201422Y960120D01*
Y943110D02*
Y960120D01*
Y943110D02*
X205232Y939300D01*
X214950D01*
X178816Y761238D02*
X195072D01*
X201290Y767456D01*
X561086Y800100D02*
Y808990D01*
X575056Y822960D01*
X613740D01*
X407670Y744220D02*
X421640Y758190D01*
X391160Y744220D02*
X407670D01*
X384810Y750570D02*
X391160Y744220D01*
X384810Y750570D02*
Y775809D01*
X314047Y846573D02*
X384810Y775809D01*
X298017Y846573D02*
X314047D01*
X291150Y853440D02*
X298017Y846573D01*
X291150Y853440D02*
Y875382D01*
X239931Y926600D02*
X291150Y875382D01*
X214950Y926600D02*
X239931D01*
X584210Y902960D02*
X613740D01*
X191516Y906272D02*
Y954786D01*
Y906272D02*
X196588Y901200D01*
X214950D01*
X96676Y852424D02*
X118872D01*
X88741Y844489D02*
X96676Y852424D01*
X85344Y844489D02*
X88741D01*
X80019Y839163D02*
X85344Y844489D01*
X80019Y835767D02*
Y839163D01*
X72800Y828548D02*
X80019Y835767D01*
X72800Y815000D02*
Y828548D01*
X235590Y832998D02*
Y864108D01*
X214950Y825000D02*
X227592D01*
X214950Y964700D02*
X218500Y961150D01*
X225236D01*
X396240Y790146D01*
Y758190D02*
Y790146D01*
X30428Y578410D02*
X41220D01*
X27686Y581152D02*
X30428Y578410D01*
X27686Y581152D02*
Y740664D01*
X42926Y755904D01*
X120350D02*
Y764540D01*
X197590Y698410D02*
X221220D01*
X59060Y424093D02*
Y431790D01*
X172665Y240030D02*
X269240D01*
X31110Y486410D02*
Y488170D01*
X48420Y505480D01*
Y506730D01*
X522450Y442875D02*
X534924Y430401D01*
X522450Y442875D02*
Y454660D01*
X31110Y473842D02*
X45212Y459740D01*
X349504Y253746D02*
X363474Y267716D01*
Y368554D01*
X402336Y407416D01*
X536448D01*
X546796Y417764D01*
Y435422D01*
X540512Y441706D02*
X546796Y435422D01*
X535686Y441706D02*
X540512D01*
X530352Y447040D02*
X535686Y441706D01*
X530352Y447040D02*
Y463296D01*
X535178Y468122D01*
X564896D01*
X569976Y473202D01*
Y534162D01*
X114540Y346270D02*
Y393530D01*
X474472Y357632D02*
Y394208D01*
X462520Y355160D02*
X472000D01*
X183360Y331090D02*
Y346710D01*
X472000Y355160D02*
X474472Y357632D01*
X321550Y350080D02*
Y365700D01*
X391160Y352180D02*
Y367800D01*
X152908Y192278D02*
X203708D01*
X133350Y172720D02*
X152908Y192278D01*
X115910Y172720D02*
X133350D01*
X206370Y309880D02*
Y312380D01*
X213360Y319370D01*
Y346710D01*
X262260Y268092D02*
Y309880D01*
X319024Y331216D02*
X332110Y318130D01*
Y311150D02*
Y318130D01*
X379730Y332232D02*
X390144D01*
X401960Y320416D01*
Y311150D02*
Y320416D01*
X473710Y277622D02*
Y288676D01*
X469270Y293116D02*
X473710Y288676D01*
X469270Y293116D02*
Y311150D01*
X266400Y801924D02*
X268732Y799592D01*
X266400Y801924D02*
Y825500D01*
X71382Y964438D02*
X100330D01*
X58420Y977400D02*
X71382Y964438D01*
X44950Y977400D02*
X58420D01*
X119950Y896750D02*
Y905925D01*
X101600Y896750D02*
Y905925D01*
Y896750D02*
X110775D01*
X101600Y905925D02*
Y915100D01*
Y933450D02*
X110775D01*
X119950Y915100D02*
Y924275D01*
Y933450D02*
X129125D01*
X110775D02*
X119950D01*
X141478Y899928D02*
Y905925D01*
X138300Y896750D02*
X141478Y899928D01*
X535940Y946420D02*
X546324D01*
X562864Y962960D01*
X613740D01*
X459740Y942960D02*
X460756D01*
X479836Y946420D02*
X535940D01*
X463296Y962960D02*
X479836Y946420D01*
X164592Y694032D02*
X179220Y708660D01*
Y724410D02*
Y743308D01*
X170688Y751840D02*
X179220Y743308D01*
X150414Y751840D02*
X170688D01*
X146350Y755904D02*
X150414Y751840D01*
X146350Y755904D02*
Y764540D01*
X292400Y788116D02*
X296672Y783844D01*
X292400Y788116D02*
Y825500D01*
X554228Y636270D02*
X566928D01*
X569450Y638792D01*
Y651510D01*
X598950D01*
X566420Y768096D02*
X593344D01*
X601490Y759950D01*
Y730250D02*
Y759950D01*
X571990Y730250D02*
X601490D01*
X534924Y501692D02*
Y505588D01*
X522450Y489218D02*
X534924Y501692D01*
X522450Y481330D02*
Y489218D01*
X101600Y915100D02*
X110775D01*
X119950D02*
X129125D01*
X119950Y905925D02*
Y915100D01*
Y924275D02*
Y933450D01*
X269640Y184150D02*
X280170Y173620D01*
X378286D01*
X422085Y217420D01*
X535940D01*
X70480Y200660D02*
X93640D01*
X94910Y201930D01*
X70480Y171450D02*
X93640D01*
X94910Y172720D01*
X538950Y481330D02*
X560840D01*
X538950Y454660D02*
X540220Y455930D01*
X562110D01*
X348610Y311150D02*
X351550Y314090D01*
Y350080D01*
X418460Y311150D02*
X421160Y313850D01*
Y352180D01*
X278760Y309880D02*
X281460Y312581D01*
Y347980D01*
D64*
X28750Y446800D02*
D03*
Y360300D02*
D03*
D65*
X70450Y446800D02*
D03*
Y360300D02*
D03*
D66*
X65550Y432450D02*
D03*
Y374650D02*
D03*
D67*
X535940Y946420D02*
D03*
Y217420D02*
D03*
D68*
X345440Y758190D02*
D03*
D69*
X138300Y924275D02*
D03*
Y905925D02*
D03*
X129125Y915100D02*
D03*
Y933450D02*
D03*
Y896750D02*
D03*
X119950Y924275D02*
D03*
X110775Y933450D02*
D03*
X119950Y905925D02*
D03*
X110775Y896750D02*
D03*
Y915100D02*
D03*
X101600Y924275D02*
D03*
Y905925D02*
D03*
D70*
X370840Y758190D02*
D03*
X421640D02*
D03*
X396240D02*
D03*
D71*
X294640Y184150D02*
D03*
X269640D02*
D03*
D72*
X244640D02*
D03*
D73*
X535940Y858520D02*
D03*
Y302370D02*
D03*
D74*
X273540Y533190D02*
D03*
X493540D02*
D03*
Y753190D02*
D03*
X273540D02*
D03*
D75*
X90170Y497840D02*
D03*
X22860Y826770D02*
D03*
D03*
X166269Y783174D02*
D03*
X59182Y812292D02*
D03*
X12192Y810768D02*
D03*
X448818Y620014D02*
D03*
X411734Y567436D02*
D03*
X285750Y647700D02*
D03*
X190500Y675640D02*
D03*
X179220Y704977D02*
D03*
X109220Y577850D02*
D03*
X302260Y417830D02*
D03*
X139700Y448310D02*
D03*
X97790Y453390D02*
D03*
X244260Y459166D02*
D03*
X309880Y805180D02*
D03*
X193040Y850900D02*
D03*
X185420Y880110D02*
D03*
X492760Y922020D02*
D03*
X27330Y990100D02*
D03*
X138430Y951230D02*
D03*
X257556Y373489D02*
D03*
X474472Y394208D02*
D03*
X294894Y499364D02*
D03*
X300990Y858012D02*
D03*
X170180Y559562D02*
D03*
X581840Y521462D02*
D03*
X196342Y568452D02*
D03*
X583184Y441706D02*
D03*
X120904Y472440D02*
D03*
X133350Y746760D02*
D03*
X586740Y702056D02*
D03*
X34290Y171450D02*
D03*
X27432Y901200D02*
D03*
X130556Y641350D02*
D03*
X118618Y705358D02*
D03*
X90678Y833882D02*
D03*
X167386Y971296D02*
D03*
X491490Y882960D02*
D03*
X336550Y699770D02*
D03*
X281940Y629920D02*
D03*
X271046Y471650D02*
D03*
X62230Y875792D02*
D03*
X299974Y619760D02*
D03*
X31230Y199020D02*
D03*
X61722Y685292D02*
D03*
X16002Y956564D02*
D03*
X119380Y665226D02*
D03*
X159512Y633984D02*
D03*
X175514Y944880D02*
D03*
X176022Y847344D02*
D03*
X561086Y800100D02*
D03*
X584210Y902960D02*
D03*
X191516Y954786D02*
D03*
X257048Y505206D02*
D03*
X247650Y974013D02*
D03*
X118872Y852424D02*
D03*
X235590Y864108D02*
D03*
X197590Y698410D02*
D03*
X269240Y240030D02*
D03*
X534924Y430401D02*
D03*
X183360Y331090D02*
D03*
X321550Y365700D02*
D03*
X391160Y367800D02*
D03*
X16256Y260604D02*
D03*
X203708Y192278D02*
D03*
X83058Y269494D02*
D03*
X265176Y265176D02*
D03*
X319024Y331216D02*
D03*
X379730Y332232D02*
D03*
X473710Y277622D02*
D03*
X268732Y799592D02*
D03*
X100330Y964438D02*
D03*
X11938Y292100D02*
D03*
X321818Y207772D02*
D03*
X217932Y266700D02*
D03*
X316738Y289814D02*
D03*
X303276Y557022D02*
D03*
X164592Y668782D02*
D03*
X296672Y783844D02*
D03*
X554228Y636270D02*
D03*
X566420Y768096D02*
D03*
X397764Y928116D02*
D03*
X290322Y291709D02*
D03*
X302388Y376428D02*
D03*
X534924Y505588D02*
D03*
M02*
