G04*
G04 #@! TF.GenerationSoftware,Altium Limited,Altium Designer,24.5.2 (23)*
G04*
G04 Layer_Color=8388736*
%FSLAX44Y44*%
%MOMM*%
G71*
G04*
G04 #@! TF.SameCoordinates,D1886AC5-69C4-4AC9-A439-FDEF45822962*
G04*
G04*
G04 #@! TF.FilePolarity,Negative*
G04*
G01*
G75*
%ADD31R,1.0000X1.2500*%
%ADD34R,1.0532X1.5532*%
%ADD35R,1.6032X1.8032*%
%ADD36R,2.2032X1.0032*%
%ADD37R,1.0032X2.2032*%
%ADD38R,1.7032X1.7032*%
%ADD39R,3.2032X3.2032*%
%ADD40R,2.8032X1.3032*%
%ADD41R,3.0032X1.3032*%
%ADD42R,1.3032X1.9032*%
%ADD43R,1.0500X2.2000*%
%ADD44R,2.2032X1.1032*%
%ADD45R,1.5332X1.5332*%
%ADD46R,1.1032X2.2032*%
%ADD47R,1.3032X1.5032*%
%ADD48R,1.0000X1.0500*%
%ADD49R,0.8432X1.0432*%
%ADD50O,1.9032X1.1032*%
%ADD51O,2.2032X1.1032*%
%ADD52C,0.8032*%
%ADD53O,4.3432X2.2732*%
%ADD54R,1.7112X1.7112*%
%ADD55C,0.5032*%
%ADD56C,1.7112*%
%ADD57C,1.6112*%
%ADD58R,1.6112X1.6112*%
%ADD59C,3.4032*%
%ADD60C,3.2032*%
%ADD61C,1.4732*%
%ADD62C,1.0032*%
D31*
X68420Y506730D02*
D03*
X48420D02*
D03*
D34*
X79370Y775970D02*
D03*
X62870D02*
D03*
X522450Y481330D02*
D03*
Y454660D02*
D03*
X469270Y311150D02*
D03*
X401960D02*
D03*
X332110D02*
D03*
X262260Y309880D02*
D03*
X189870D02*
D03*
X120020Y308610D02*
D03*
X53980Y171450D02*
D03*
X70480D02*
D03*
X53980Y200660D02*
D03*
X70480D02*
D03*
X184790Y775970D02*
D03*
X201290D02*
D03*
X14610Y486410D02*
D03*
X31110D02*
D03*
X538950Y481330D02*
D03*
Y454660D02*
D03*
X239400Y486410D02*
D03*
X255900D02*
D03*
X136520Y308610D02*
D03*
X418460Y311150D02*
D03*
X348610D02*
D03*
X206370Y309880D02*
D03*
X485770Y311150D02*
D03*
X278760Y309880D02*
D03*
D35*
X391160Y352180D02*
D03*
Y424180D02*
D03*
X421160D02*
D03*
Y352180D02*
D03*
X462520Y355160D02*
D03*
X321550Y350080D02*
D03*
X251460Y347980D02*
D03*
X183360Y346710D02*
D03*
X114540Y346270D02*
D03*
X251460Y419980D02*
D03*
X281460D02*
D03*
Y347980D02*
D03*
X462520Y427160D02*
D03*
X492520D02*
D03*
Y355160D02*
D03*
X321550Y422080D02*
D03*
X351550D02*
D03*
Y350080D02*
D03*
X183360Y418710D02*
D03*
X213360D02*
D03*
Y346710D02*
D03*
X114540Y418270D02*
D03*
X144540D02*
D03*
Y346270D02*
D03*
D36*
X41220Y710410D02*
D03*
Y698410D02*
D03*
Y686410D02*
D03*
Y674410D02*
D03*
Y662410D02*
D03*
Y650410D02*
D03*
Y638410D02*
D03*
Y626410D02*
D03*
Y614410D02*
D03*
Y590410D02*
D03*
Y578410D02*
D03*
Y566410D02*
D03*
Y554410D02*
D03*
X221220D02*
D03*
Y566410D02*
D03*
Y578410D02*
D03*
Y590410D02*
D03*
Y602410D02*
D03*
Y614410D02*
D03*
Y626410D02*
D03*
Y638410D02*
D03*
Y650410D02*
D03*
Y662410D02*
D03*
Y674410D02*
D03*
Y686410D02*
D03*
Y698410D02*
D03*
Y710410D02*
D03*
X41220Y602410D02*
D03*
D37*
X59220Y540410D02*
D03*
X71220D02*
D03*
X83220D02*
D03*
X95220D02*
D03*
X107220D02*
D03*
X119220D02*
D03*
X131220D02*
D03*
X143220D02*
D03*
X155220D02*
D03*
X167220D02*
D03*
X179220D02*
D03*
X191220D02*
D03*
X203220Y724410D02*
D03*
X191220D02*
D03*
X167220D02*
D03*
X155220D02*
D03*
X143220D02*
D03*
X131220D02*
D03*
X119220D02*
D03*
X107220D02*
D03*
X95220D02*
D03*
X83220D02*
D03*
X71220D02*
D03*
X59220D02*
D03*
X203220Y540410D02*
D03*
X179220Y724410D02*
D03*
D38*
X109220Y613410D02*
D03*
D39*
X86220Y682410D02*
D03*
D40*
X613740Y962960D02*
D03*
X459740Y942960D02*
D03*
X613740Y822960D02*
D03*
X459740Y922960D02*
D03*
Y902960D02*
D03*
Y882960D02*
D03*
Y862960D02*
D03*
Y842960D02*
D03*
Y822960D02*
D03*
X613740Y842960D02*
D03*
Y862960D02*
D03*
Y882960D02*
D03*
Y902960D02*
D03*
Y922960D02*
D03*
Y942960D02*
D03*
D41*
X460740Y962960D02*
D03*
D42*
X292400Y825500D02*
D03*
X146350Y764540D02*
D03*
X266400Y825500D02*
D03*
X120350Y764540D02*
D03*
D43*
X601490Y730250D02*
D03*
X571990D02*
D03*
X598950Y651510D02*
D03*
X569450D02*
D03*
D44*
X214950Y990100D02*
D03*
X44950D02*
D03*
Y977400D02*
D03*
X214950D02*
D03*
Y964700D02*
D03*
Y952000D02*
D03*
Y939300D02*
D03*
Y926600D02*
D03*
Y913900D02*
D03*
Y901200D02*
D03*
Y888500D02*
D03*
Y875800D02*
D03*
Y863100D02*
D03*
Y850400D02*
D03*
Y837700D02*
D03*
Y825000D02*
D03*
X44950D02*
D03*
Y837700D02*
D03*
Y850400D02*
D03*
Y863100D02*
D03*
Y875800D02*
D03*
Y888500D02*
D03*
Y901200D02*
D03*
Y913900D02*
D03*
Y926600D02*
D03*
Y939300D02*
D03*
Y952000D02*
D03*
Y964700D02*
D03*
D45*
X138300Y933450D02*
D03*
Y915100D02*
D03*
Y896750D02*
D03*
X119950Y933450D02*
D03*
Y896750D02*
D03*
Y915100D02*
D03*
X101600D02*
D03*
Y933450D02*
D03*
Y896750D02*
D03*
D46*
X72800Y815000D02*
D03*
X187100D02*
D03*
X174400D02*
D03*
X161700D02*
D03*
X149000D02*
D03*
X136300D02*
D03*
X123600D02*
D03*
X110900D02*
D03*
X98200D02*
D03*
X85500D02*
D03*
D47*
X115910Y172720D02*
D03*
Y201930D02*
D03*
X94910Y172720D02*
D03*
Y201930D02*
D03*
X560840Y481330D02*
D03*
X581840D02*
D03*
X562110Y455930D02*
D03*
X583110D02*
D03*
D48*
X586740Y715000D02*
D03*
X584200Y636260D02*
D03*
D49*
X592070Y608330D02*
D03*
X578870D02*
D03*
D50*
X28750Y446800D02*
D03*
Y360300D02*
D03*
D51*
X70450Y446800D02*
D03*
Y360300D02*
D03*
D52*
X65550Y432450D02*
D03*
Y374650D02*
D03*
D53*
X535940Y946420D02*
D03*
Y217420D02*
D03*
D54*
X345440Y758190D02*
D03*
D55*
X138300Y924275D02*
D03*
Y905925D02*
D03*
X129125Y915100D02*
D03*
Y933450D02*
D03*
Y896750D02*
D03*
X119950Y924275D02*
D03*
X110775Y933450D02*
D03*
X119950Y905925D02*
D03*
X110775Y896750D02*
D03*
Y915100D02*
D03*
X101600Y924275D02*
D03*
Y905925D02*
D03*
D56*
X370840Y758190D02*
D03*
X421640D02*
D03*
X396240D02*
D03*
D57*
X294640Y184150D02*
D03*
X269640D02*
D03*
D58*
X244640D02*
D03*
D59*
X535940Y858520D02*
D03*
Y302370D02*
D03*
D60*
X273540Y533190D02*
D03*
X493540D02*
D03*
Y753190D02*
D03*
X273540D02*
D03*
D61*
X90170Y497840D02*
D03*
X22860Y826770D02*
D03*
D03*
X166269Y783174D02*
D03*
X59182Y812292D02*
D03*
X12192Y810768D02*
D03*
X448818Y620014D02*
D03*
X411734Y567436D02*
D03*
X285750Y647700D02*
D03*
X190500Y675640D02*
D03*
X179220Y704977D02*
D03*
X109220Y577850D02*
D03*
X302260Y417830D02*
D03*
X139700Y448310D02*
D03*
X97790Y453390D02*
D03*
X244260Y459166D02*
D03*
X309880Y805180D02*
D03*
X193040Y850900D02*
D03*
X185420Y880110D02*
D03*
X492760Y922020D02*
D03*
X27330Y990100D02*
D03*
X138430Y951230D02*
D03*
X257556Y373489D02*
D03*
X474472Y394208D02*
D03*
X294894Y499364D02*
D03*
X300990Y858012D02*
D03*
X170180Y559562D02*
D03*
X581840Y521462D02*
D03*
X196342Y568452D02*
D03*
X583184Y441706D02*
D03*
X120904Y472440D02*
D03*
X133350Y746760D02*
D03*
X586740Y702056D02*
D03*
X34290Y171450D02*
D03*
X27432Y901200D02*
D03*
X130556Y641350D02*
D03*
X118618Y705358D02*
D03*
X90678Y833882D02*
D03*
X167386Y971296D02*
D03*
X491490Y882960D02*
D03*
X336550Y699770D02*
D03*
X281940Y629920D02*
D03*
X271046Y471650D02*
D03*
X62230Y875792D02*
D03*
X299974Y619760D02*
D03*
X31230Y199020D02*
D03*
X61722Y685292D02*
D03*
X16002Y956564D02*
D03*
X119380Y665226D02*
D03*
X159512Y633984D02*
D03*
X175514Y944880D02*
D03*
X176022Y847344D02*
D03*
X561086Y800100D02*
D03*
X584210Y902960D02*
D03*
X191516Y954786D02*
D03*
X257048Y505206D02*
D03*
X247650Y974013D02*
D03*
X118872Y852424D02*
D03*
X235590Y864108D02*
D03*
X197590Y698410D02*
D03*
X269240Y240030D02*
D03*
X534924Y430401D02*
D03*
X183360Y331090D02*
D03*
X321550Y365700D02*
D03*
X391160Y367800D02*
D03*
X16256Y260604D02*
D03*
X203708Y192278D02*
D03*
X83058Y269494D02*
D03*
X265176Y265176D02*
D03*
X319024Y331216D02*
D03*
X379730Y332232D02*
D03*
X473710Y277622D02*
D03*
X268732Y799592D02*
D03*
X100330Y964438D02*
D03*
X11938Y292100D02*
D03*
X321818Y207772D02*
D03*
X217932Y266700D02*
D03*
X316738Y289814D02*
D03*
X303276Y557022D02*
D03*
X164592Y668782D02*
D03*
X296672Y783844D02*
D03*
X554228Y636270D02*
D03*
X566420Y768096D02*
D03*
X397764Y928116D02*
D03*
X290322Y291709D02*
D03*
X302388Y376428D02*
D03*
X534924Y505588D02*
D03*
D62*
X39370Y775970D02*
D03*
X207010Y737870D02*
D03*
X214630Y778510D02*
D03*
M02*
