G04*
G04 #@! TF.GenerationSoftware,Altium Limited,Altium Designer,24.5.2 (23)*
G04*
G04 Layer_Color=128*
%FSLAX44Y44*%
%MOMM*%
G71*
G04*
G04 #@! TF.SameCoordinates,D1886AC5-69C4-4AC9-A439-FDEF45822962*
G04*
G04*
G04 #@! TF.FilePolarity,Positive*
G04*
G01*
G75*
%ADD15C,0.2540*%
%ADD19R,0.8500X1.3500*%
%ADD20R,1.4000X1.6000*%
%ADD31R,1.0000X1.2500*%
%ADD94R,1.1400X0.6000*%
%ADD95R,1.1400X0.3000*%
%ADD96R,1.6800X1.7000*%
%ADD98R,1.3401X0.8999*%
G04:AMPARAMS|DCode=99|XSize=1.31mm|YSize=0.62mm|CornerRadius=0.0775mm|HoleSize=0mm|Usage=FLASHONLY|Rotation=180.000|XOffset=0mm|YOffset=0mm|HoleType=Round|Shape=RoundedRectangle|*
%AMROUNDEDRECTD99*
21,1,1.3100,0.4650,0,0,180.0*
21,1,1.1550,0.6200,0,0,180.0*
1,1,0.1550,-0.5775,0.2325*
1,1,0.1550,0.5775,0.2325*
1,1,0.1550,0.5775,-0.2325*
1,1,0.1550,-0.5775,-0.2325*
%
%ADD99ROUNDEDRECTD99*%
G04:AMPARAMS|DCode=100|XSize=1.56mm|YSize=0.4mm|CornerRadius=0.05mm|HoleSize=0mm|Usage=FLASHONLY|Rotation=90.000|XOffset=0mm|YOffset=0mm|HoleType=Round|Shape=RoundedRectangle|*
%AMROUNDEDRECTD100*
21,1,1.5600,0.3000,0,0,90.0*
21,1,1.4600,0.4000,0,0,90.0*
1,1,0.1000,0.1500,0.7300*
1,1,0.1000,0.1500,-0.7300*
1,1,0.1000,-0.1500,-0.7300*
1,1,0.1000,-0.1500,0.7300*
%
%ADD100ROUNDEDRECTD100*%
%ADD101R,1.4000X0.6000*%
%ADD102R,1.2100X0.5900*%
%ADD103R,1.3500X0.8500*%
G04:AMPARAMS|DCode=104|XSize=1.97mm|YSize=0.6mm|CornerRadius=0.075mm|HoleSize=0mm|Usage=FLASHONLY|Rotation=270.000|XOffset=0mm|YOffset=0mm|HoleType=Round|Shape=RoundedRectangle|*
%AMROUNDEDRECTD104*
21,1,1.9700,0.4500,0,0,270.0*
21,1,1.8200,0.6000,0,0,270.0*
1,1,0.1500,-0.2250,-0.9100*
1,1,0.1500,-0.2250,0.9100*
1,1,0.1500,0.2250,0.9100*
1,1,0.1500,0.2250,-0.9100*
%
%ADD104ROUNDEDRECTD104*%
%ADD105R,1.2500X1.0000*%
%ADD106R,1.3500X0.6000*%
%ADD107R,1.3000X1.1000*%
%ADD109R,1.8000X0.6000*%
%ADD110R,2.6101X1.5601*%
G36*
X231548Y757610D02*
X228520D01*
Y765090D01*
X231548D01*
Y757610D01*
D02*
G37*
G36*
X218505Y757607D02*
X215520D01*
Y765090D01*
X218505D01*
Y757607D01*
D02*
G37*
G36*
X225021Y757596D02*
X222020D01*
Y765090D01*
X225021D01*
Y757596D01*
D02*
G37*
G36*
X231531Y738571D02*
X228520D01*
Y746090D01*
X231531D01*
Y738571D01*
D02*
G37*
G36*
X225022Y738569D02*
X222020D01*
Y746090D01*
X225022D01*
Y738569D01*
D02*
G37*
G36*
X218508Y738559D02*
X215520D01*
Y746090D01*
X218508D01*
Y738559D01*
D02*
G37*
G36*
X177180Y295100D02*
Y289100D01*
X170680Y282600D01*
X151680D01*
X147320Y286960D01*
Y297240D01*
X151680Y301600D01*
X170680D01*
X177180Y295100D01*
D02*
G37*
G36*
X64080Y255170D02*
X47680D01*
Y268070D01*
X64080D01*
Y255170D01*
D02*
G37*
D15*
X37220Y728410D02*
X225220D01*
X37220Y536410D02*
Y728410D01*
X225220Y536410D02*
Y728410D01*
X37220Y536410D02*
X225220D01*
D19*
X206370Y219710D02*
D03*
X120010Y391160D02*
D03*
X121280Y420370D02*
D03*
X252100Y561340D02*
D03*
X252090Y848360D02*
D03*
X235590D02*
D03*
X268600Y561340D02*
D03*
X103510Y391160D02*
D03*
X104780Y420370D02*
D03*
X189870Y219710D02*
D03*
X179700Y176530D02*
D03*
X163200D02*
D03*
D20*
X389650Y880940D02*
D03*
X262650D02*
D03*
X401080Y586300D02*
D03*
X274080Y591380D02*
D03*
X262650Y952940D02*
D03*
X232650D02*
D03*
Y880940D02*
D03*
X401080Y658300D02*
D03*
X371080D02*
D03*
Y586300D02*
D03*
X389650Y952940D02*
D03*
X359650D02*
D03*
Y880940D02*
D03*
X274080Y663380D02*
D03*
X244080D02*
D03*
Y591380D02*
D03*
D31*
X161450Y198120D02*
D03*
X181450D02*
D03*
X383380Y843280D02*
D03*
X236060Y473710D02*
D03*
X260510Y335280D02*
D03*
X221140Y304800D02*
D03*
X180500Y252730D02*
D03*
X56040Y472440D02*
D03*
X50960Y318770D02*
D03*
X280510Y335280D02*
D03*
X200500Y252730D02*
D03*
X70960Y318770D02*
D03*
X363380Y843280D02*
D03*
X241140Y304800D02*
D03*
X216060Y473710D02*
D03*
X76040Y472440D02*
D03*
D94*
X76250Y435550D02*
D03*
Y427550D02*
D03*
Y379550D02*
D03*
Y371550D02*
D03*
D95*
Y421050D02*
D03*
Y416050D02*
D03*
Y411050D02*
D03*
Y406050D02*
D03*
Y386050D02*
D03*
Y391050D02*
D03*
Y396050D02*
D03*
Y401050D02*
D03*
D96*
X246380Y268090D02*
D03*
Y232290D02*
D03*
D98*
X179070Y708459D02*
D03*
Y759460D02*
D03*
Y733958D02*
D03*
Y772208D02*
D03*
Y746709D02*
D03*
Y721210D02*
D03*
D99*
X202760Y435610D02*
D03*
X147760D02*
D03*
Y422910D02*
D03*
X202760Y346710D02*
D03*
X147760Y359410D02*
D03*
X202760D02*
D03*
Y384810D02*
D03*
X147760Y346710D02*
D03*
X202760Y372110D02*
D03*
X147760D02*
D03*
Y384810D02*
D03*
Y410210D02*
D03*
X202760Y397510D02*
D03*
Y410210D02*
D03*
X147760Y397510D02*
D03*
X202760Y422910D02*
D03*
D100*
X113740Y332330D02*
D03*
Y274730D02*
D03*
X107240Y332330D02*
D03*
Y274730D02*
D03*
X120240D02*
D03*
X100740D02*
D03*
Y332330D02*
D03*
X120240D02*
D03*
D101*
X188180Y307100D02*
D03*
Y277100D02*
D03*
D102*
X136040Y235560D02*
D03*
Y226060D02*
D03*
Y216560D02*
D03*
X161140D02*
D03*
Y226060D02*
D03*
Y235560D02*
D03*
D103*
X17780Y333370D02*
D03*
X276860Y421010D02*
D03*
X278130Y363230D02*
D03*
X293370Y922650D02*
D03*
Y906150D02*
D03*
X326390D02*
D03*
Y922650D02*
D03*
X113030Y494670D02*
D03*
Y511170D02*
D03*
X185420Y493400D02*
D03*
Y509900D02*
D03*
X276860Y437510D02*
D03*
X278130Y379730D02*
D03*
X17780Y316870D02*
D03*
D104*
X62230Y286370D02*
D03*
X36830D02*
D03*
X74930D02*
D03*
X36830Y236870D02*
D03*
X49530D02*
D03*
X62230D02*
D03*
X74930D02*
D03*
X49530Y286370D02*
D03*
D105*
X106680Y250030D02*
D03*
Y230030D02*
D03*
D106*
X135320Y472440D02*
D03*
X159320Y462940D02*
D03*
Y481940D02*
D03*
X131510Y533400D02*
D03*
X155510Y523900D02*
D03*
Y542900D02*
D03*
D107*
X241300Y364150D02*
D03*
Y385150D02*
D03*
X238760Y418760D02*
D03*
Y439760D02*
D03*
D109*
X186180Y292100D02*
D03*
D110*
X25319Y848210D02*
D03*
Y695960D02*
D03*
X153820Y848210D02*
D03*
Y695960D02*
D03*
M02*
