G04*
G04 #@! TF.GenerationSoftware,Altium Limited,Altium Designer,24.5.2 (23)*
G04*
G04 Layer_Color=8421504*
%FSLAX44Y44*%
%MOMM*%
G71*
G04*
G04 #@! TF.SameCoordinates,D1886AC5-69C4-4AC9-A439-FDEF45822962*
G04*
G04*
G04 #@! TF.FilePolarity,Positive*
G04*
G01*
G75*
%ADD17R,0.8000X0.8500*%
%ADD18R,0.9000X2.0000*%
%ADD19R,0.8500X1.3500*%
%ADD20R,1.4000X1.6000*%
%ADD21R,2.0000X0.8000*%
%ADD22R,0.8000X2.0000*%
%ADD23R,1.5000X1.5000*%
%ADD24R,3.0000X3.0000*%
%ADD25R,2.6000X1.1000*%
%ADD26R,2.8000X1.1000*%
%ADD27R,1.1000X1.7000*%
%ADD28R,2.0000X0.9000*%
%ADD29R,1.3300X1.3300*%
%ADD30R,0.9000X2.0000*%
%ADD31R,1.0000X1.2500*%
%ADD32R,1.1000X1.3000*%
%ADD33R,0.6400X0.8400*%
D17*
X586740Y715000D02*
D03*
X584200Y636260D02*
D03*
D18*
X601740Y730250D02*
D03*
X571740D02*
D03*
X599200Y651510D02*
D03*
X569200D02*
D03*
D19*
X79370Y775970D02*
D03*
X62870D02*
D03*
X522450Y481330D02*
D03*
Y454660D02*
D03*
X469270Y311150D02*
D03*
X401960D02*
D03*
X332110D02*
D03*
X262260Y309880D02*
D03*
X189870D02*
D03*
X120020Y308610D02*
D03*
X53980Y171450D02*
D03*
X70480D02*
D03*
X53980Y200660D02*
D03*
X70480D02*
D03*
X184790Y775970D02*
D03*
X201290D02*
D03*
X14610Y486410D02*
D03*
X31110D02*
D03*
X538950Y481330D02*
D03*
Y454660D02*
D03*
X239400Y486410D02*
D03*
X255900D02*
D03*
X136520Y308610D02*
D03*
X418460Y311150D02*
D03*
X348610D02*
D03*
X206370Y309880D02*
D03*
X485770Y311150D02*
D03*
X278760Y309880D02*
D03*
D20*
X391160Y352180D02*
D03*
Y424180D02*
D03*
X421160D02*
D03*
Y352180D02*
D03*
X462520Y355160D02*
D03*
X321550Y350080D02*
D03*
X251460Y347980D02*
D03*
X183360Y346710D02*
D03*
X114540Y346270D02*
D03*
X251460Y419980D02*
D03*
X281460D02*
D03*
Y347980D02*
D03*
X462520Y427160D02*
D03*
X492520D02*
D03*
Y355160D02*
D03*
X321550Y422080D02*
D03*
X351550D02*
D03*
Y350080D02*
D03*
X183360Y418710D02*
D03*
X213360D02*
D03*
Y346710D02*
D03*
X114540Y418270D02*
D03*
X144540D02*
D03*
Y346270D02*
D03*
D21*
X41220Y710410D02*
D03*
Y698410D02*
D03*
Y686410D02*
D03*
Y674410D02*
D03*
Y662410D02*
D03*
Y650410D02*
D03*
Y638410D02*
D03*
Y626410D02*
D03*
Y614410D02*
D03*
Y590410D02*
D03*
Y578410D02*
D03*
Y566410D02*
D03*
Y554410D02*
D03*
X221220D02*
D03*
Y566410D02*
D03*
Y578410D02*
D03*
Y590410D02*
D03*
Y602410D02*
D03*
Y614410D02*
D03*
Y626410D02*
D03*
Y638410D02*
D03*
Y650410D02*
D03*
Y662410D02*
D03*
Y674410D02*
D03*
Y686410D02*
D03*
Y698410D02*
D03*
Y710410D02*
D03*
X41220Y602410D02*
D03*
D22*
X59220Y540410D02*
D03*
X71220D02*
D03*
X83220D02*
D03*
X95220D02*
D03*
X107220D02*
D03*
X119220D02*
D03*
X131220D02*
D03*
X143220D02*
D03*
X155220D02*
D03*
X167220D02*
D03*
X179220D02*
D03*
X191220D02*
D03*
X203220Y724410D02*
D03*
X191220D02*
D03*
X167220D02*
D03*
X155220D02*
D03*
X143220D02*
D03*
X131220D02*
D03*
X119220D02*
D03*
X107220D02*
D03*
X95220D02*
D03*
X83220D02*
D03*
X71220D02*
D03*
X59220D02*
D03*
X203220Y540410D02*
D03*
X179220Y724410D02*
D03*
D23*
X109220Y613410D02*
D03*
D24*
X86220Y682410D02*
D03*
D25*
X613740Y962960D02*
D03*
X459740Y942960D02*
D03*
X613740Y822960D02*
D03*
X459740Y922960D02*
D03*
Y902960D02*
D03*
Y882960D02*
D03*
Y862960D02*
D03*
Y842960D02*
D03*
Y822960D02*
D03*
X613740Y842960D02*
D03*
Y862960D02*
D03*
Y882960D02*
D03*
Y902960D02*
D03*
Y922960D02*
D03*
Y942960D02*
D03*
D26*
X460740Y962960D02*
D03*
D27*
X292400Y825500D02*
D03*
X146350Y764540D02*
D03*
X266400Y825500D02*
D03*
X120350Y764540D02*
D03*
D28*
X214950Y990100D02*
D03*
X44950D02*
D03*
Y977400D02*
D03*
X214950D02*
D03*
Y964700D02*
D03*
Y952000D02*
D03*
Y939300D02*
D03*
Y926600D02*
D03*
Y913900D02*
D03*
Y901200D02*
D03*
Y888500D02*
D03*
Y875800D02*
D03*
Y863100D02*
D03*
Y850400D02*
D03*
Y837700D02*
D03*
Y825000D02*
D03*
X44950D02*
D03*
Y837700D02*
D03*
Y850400D02*
D03*
Y863100D02*
D03*
Y875800D02*
D03*
Y888500D02*
D03*
Y901200D02*
D03*
Y913900D02*
D03*
Y926600D02*
D03*
Y939300D02*
D03*
Y952000D02*
D03*
Y964700D02*
D03*
D29*
X138300Y933450D02*
D03*
Y915100D02*
D03*
Y896750D02*
D03*
X119950Y933450D02*
D03*
Y896750D02*
D03*
Y915100D02*
D03*
X101600D02*
D03*
Y933450D02*
D03*
Y896750D02*
D03*
D30*
X72800Y815000D02*
D03*
X187100D02*
D03*
X174400D02*
D03*
X161700D02*
D03*
X149000D02*
D03*
X136300D02*
D03*
X123600D02*
D03*
X110900D02*
D03*
X98200D02*
D03*
X85500D02*
D03*
D31*
X68420Y506730D02*
D03*
X48420D02*
D03*
D32*
X115910Y172720D02*
D03*
Y201930D02*
D03*
X94910Y172720D02*
D03*
Y201930D02*
D03*
X560840Y481330D02*
D03*
X581840D02*
D03*
X562110Y455930D02*
D03*
X583110D02*
D03*
D33*
X592070Y608330D02*
D03*
X578870D02*
D03*
M02*
