G04*
G04 #@! TF.GenerationSoftware,Altium Limited,Altium Designer,24.5.2 (23)*
G04*
G04 Layer_Color=16711935*
%FSLAX44Y44*%
%MOMM*%
G71*
G04*
G04 #@! TF.SameCoordinates,D1886AC5-69C4-4AC9-A439-FDEF45822962*
G04*
G04*
G04 #@! TF.FilePolarity,Negative*
G04*
G01*
G75*
%ADD31R,1.0000X1.2500*%
%ADD34R,1.0532X1.5532*%
%ADD35R,1.6032X1.8032*%
%ADD50O,1.9032X1.1032*%
%ADD51O,2.2032X1.1032*%
%ADD52C,0.8032*%
%ADD53O,4.3432X2.2732*%
%ADD54R,1.7112X1.7112*%
%ADD55C,0.5032*%
%ADD56C,1.7112*%
%ADD57C,1.6112*%
%ADD58R,1.6112X1.6112*%
%ADD59C,3.4032*%
%ADD60C,3.2032*%
%ADD61C,1.4732*%
%ADD62C,1.0032*%
%ADD96R,1.6800X1.7000*%
%ADD105R,1.2500X1.0000*%
%ADD113R,1.2400X0.7000*%
%ADD114R,1.2400X0.4000*%
%ADD115R,1.5433X1.1031*%
G04:AMPARAMS|DCode=116|XSize=1.5132mm|YSize=0.8232mm|CornerRadius=0.1791mm|HoleSize=0mm|Usage=FLASHONLY|Rotation=180.000|XOffset=0mm|YOffset=0mm|HoleType=Round|Shape=RoundedRectangle|*
%AMROUNDEDRECTD116*
21,1,1.5132,0.4650,0,0,180.0*
21,1,1.1550,0.8232,0,0,180.0*
1,1,0.3582,-0.5775,0.2325*
1,1,0.3582,0.5775,0.2325*
1,1,0.3582,0.5775,-0.2325*
1,1,0.3582,-0.5775,-0.2325*
%
%ADD116ROUNDEDRECTD116*%
G04:AMPARAMS|DCode=117|XSize=1.7632mm|YSize=0.6032mm|CornerRadius=0.1516mm|HoleSize=0mm|Usage=FLASHONLY|Rotation=90.000|XOffset=0mm|YOffset=0mm|HoleType=Round|Shape=RoundedRectangle|*
%AMROUNDEDRECTD117*
21,1,1.7632,0.3000,0,0,90.0*
21,1,1.4600,0.6032,0,0,90.0*
1,1,0.3032,0.1500,0.7300*
1,1,0.3032,0.1500,-0.7300*
1,1,0.3032,-0.1500,-0.7300*
1,1,0.3032,-0.1500,0.7300*
%
%ADD117ROUNDEDRECTD117*%
%ADD118R,1.6032X0.8032*%
%ADD119R,1.4132X0.7932*%
%ADD120R,1.5532X1.0532*%
G04:AMPARAMS|DCode=121|XSize=2.1732mm|YSize=0.8032mm|CornerRadius=0.1766mm|HoleSize=0mm|Usage=FLASHONLY|Rotation=270.000|XOffset=0mm|YOffset=0mm|HoleType=Round|Shape=RoundedRectangle|*
%AMROUNDEDRECTD121*
21,1,2.1732,0.4500,0,0,270.0*
21,1,1.8200,0.8032,0,0,270.0*
1,1,0.3532,-0.2250,-0.9100*
1,1,0.3532,-0.2250,0.9100*
1,1,0.3532,0.2250,0.9100*
1,1,0.3532,0.2250,-0.9100*
%
%ADD121ROUNDEDRECTD121*%
%ADD122R,1.5532X0.8032*%
%ADD123R,1.5032X1.3032*%
%ADD124R,3.5052X2.6162*%
%ADD125R,2.0032X0.8032*%
%ADD126R,2.8133X1.7633*%
G36*
X219258Y756854D02*
X214770D01*
Y765840D01*
X219258D01*
Y756854D01*
D02*
G37*
G36*
X232284Y756848D02*
X227770D01*
Y765840D01*
X232284D01*
Y756848D01*
D02*
G37*
G36*
X225770Y756841D02*
X221270D01*
Y765840D01*
X225770D01*
Y756841D01*
D02*
G37*
G36*
X219268Y737833D02*
X214770D01*
Y746840D01*
X219268D01*
Y737833D01*
D02*
G37*
G36*
X225772Y737828D02*
X221270D01*
Y746840D01*
X225772D01*
Y737828D01*
D02*
G37*
G36*
X232280Y737824D02*
X227770D01*
Y746840D01*
X232280D01*
Y737824D01*
D02*
G37*
G36*
X170813Y302610D02*
X170944Y302584D01*
X171070Y302541D01*
X171189Y302482D01*
X171300Y302408D01*
X171400Y302320D01*
X177900Y295820D01*
X177988Y295720D01*
X178062Y295609D01*
X178121Y295490D01*
X178164Y295364D01*
X178190Y295233D01*
X178198Y295100D01*
Y289100D01*
X178190Y288967D01*
X178164Y288836D01*
X178121Y288710D01*
X178062Y288591D01*
X177988Y288480D01*
X177900Y288380D01*
X171400Y281880D01*
X171300Y281792D01*
X171189Y281718D01*
X171070Y281659D01*
X170944Y281616D01*
X170813Y281590D01*
X170680Y281582D01*
X151680D01*
X151547Y281590D01*
X151417Y281616D01*
X151290Y281659D01*
X151171Y281718D01*
X151060Y281792D01*
X150960Y281880D01*
X146600Y286240D01*
X146512Y286340D01*
X146438Y286451D01*
X146379Y286570D01*
X146336Y286696D01*
X146311Y286827D01*
X146302Y286960D01*
Y297240D01*
X146311Y297373D01*
X146336Y297504D01*
X146379Y297630D01*
X146438Y297749D01*
X146512Y297860D01*
X146600Y297960D01*
X150960Y302320D01*
X151060Y302408D01*
X151171Y302482D01*
X151290Y302541D01*
X151417Y302584D01*
X151547Y302610D01*
X151680Y302618D01*
X170680D01*
X170813Y302610D01*
D02*
G37*
D31*
X161450Y198120D02*
D03*
X181450D02*
D03*
X383380Y843280D02*
D03*
X236060Y473710D02*
D03*
X260510Y335280D02*
D03*
X221140Y304800D02*
D03*
X180500Y252730D02*
D03*
X56040Y472440D02*
D03*
X50960Y318770D02*
D03*
X280510Y335280D02*
D03*
X200500Y252730D02*
D03*
X70960Y318770D02*
D03*
X363380Y843280D02*
D03*
X241140Y304800D02*
D03*
X216060Y473710D02*
D03*
X76040Y472440D02*
D03*
D34*
X206370Y219710D02*
D03*
X120010Y391160D02*
D03*
X121280Y420370D02*
D03*
X252100Y561340D02*
D03*
X252090Y848360D02*
D03*
X235590D02*
D03*
X268600Y561340D02*
D03*
X103510Y391160D02*
D03*
X104780Y420370D02*
D03*
X189870Y219710D02*
D03*
X179700Y176530D02*
D03*
X163200D02*
D03*
D35*
X389650Y880940D02*
D03*
X262650D02*
D03*
X401080Y586300D02*
D03*
X274080Y591380D02*
D03*
X262650Y952940D02*
D03*
X232650D02*
D03*
Y880940D02*
D03*
X401080Y658300D02*
D03*
X371080D02*
D03*
Y586300D02*
D03*
X389650Y952940D02*
D03*
X359650D02*
D03*
Y880940D02*
D03*
X274080Y663380D02*
D03*
X244080D02*
D03*
Y591380D02*
D03*
D50*
X28750Y446800D02*
D03*
Y360300D02*
D03*
D51*
X70450Y446800D02*
D03*
Y360300D02*
D03*
D52*
X65550Y432450D02*
D03*
Y374650D02*
D03*
D53*
X535940Y946420D02*
D03*
Y217420D02*
D03*
D54*
X345440Y758190D02*
D03*
D55*
X138300Y924275D02*
D03*
Y905925D02*
D03*
X129125Y915100D02*
D03*
Y933450D02*
D03*
Y896750D02*
D03*
X119950Y924275D02*
D03*
X110775Y933450D02*
D03*
X119950Y905925D02*
D03*
X110775Y896750D02*
D03*
Y915100D02*
D03*
X101600Y924275D02*
D03*
Y905925D02*
D03*
D56*
X370840Y758190D02*
D03*
X421640D02*
D03*
X396240D02*
D03*
D57*
X294640Y184150D02*
D03*
X269640D02*
D03*
D58*
X244640D02*
D03*
D59*
X535940Y858520D02*
D03*
Y302370D02*
D03*
D60*
X273540Y533190D02*
D03*
X493540D02*
D03*
Y753190D02*
D03*
X273540D02*
D03*
D61*
X90170Y497840D02*
D03*
X22860Y826770D02*
D03*
D03*
X166269Y783174D02*
D03*
X59182Y812292D02*
D03*
X12192Y810768D02*
D03*
X448818Y620014D02*
D03*
X411734Y567436D02*
D03*
X285750Y647700D02*
D03*
X190500Y675640D02*
D03*
X179220Y704977D02*
D03*
X109220Y577850D02*
D03*
X302260Y417830D02*
D03*
X139700Y448310D02*
D03*
X97790Y453390D02*
D03*
X244260Y459166D02*
D03*
X309880Y805180D02*
D03*
X193040Y850900D02*
D03*
X185420Y880110D02*
D03*
X492760Y922020D02*
D03*
X27330Y990100D02*
D03*
X138430Y951230D02*
D03*
X257556Y373489D02*
D03*
X474472Y394208D02*
D03*
X294894Y499364D02*
D03*
X300990Y858012D02*
D03*
X170180Y559562D02*
D03*
X581840Y521462D02*
D03*
X196342Y568452D02*
D03*
X583184Y441706D02*
D03*
X120904Y472440D02*
D03*
X133350Y746760D02*
D03*
X586740Y702056D02*
D03*
X34290Y171450D02*
D03*
X27432Y901200D02*
D03*
X130556Y641350D02*
D03*
X118618Y705358D02*
D03*
X90678Y833882D02*
D03*
X167386Y971296D02*
D03*
X491490Y882960D02*
D03*
X336550Y699770D02*
D03*
X281940Y629920D02*
D03*
X271046Y471650D02*
D03*
X62230Y875792D02*
D03*
X299974Y619760D02*
D03*
X31230Y199020D02*
D03*
X61722Y685292D02*
D03*
X16002Y956564D02*
D03*
X119380Y665226D02*
D03*
X159512Y633984D02*
D03*
X175514Y944880D02*
D03*
X176022Y847344D02*
D03*
X561086Y800100D02*
D03*
X584210Y902960D02*
D03*
X191516Y954786D02*
D03*
X257048Y505206D02*
D03*
X247650Y974013D02*
D03*
X118872Y852424D02*
D03*
X235590Y864108D02*
D03*
X197590Y698410D02*
D03*
X269240Y240030D02*
D03*
X534924Y430401D02*
D03*
X183360Y331090D02*
D03*
X321550Y365700D02*
D03*
X391160Y367800D02*
D03*
X16256Y260604D02*
D03*
X203708Y192278D02*
D03*
X83058Y269494D02*
D03*
X265176Y265176D02*
D03*
X319024Y331216D02*
D03*
X379730Y332232D02*
D03*
X473710Y277622D02*
D03*
X268732Y799592D02*
D03*
X100330Y964438D02*
D03*
X11938Y292100D02*
D03*
X321818Y207772D02*
D03*
X217932Y266700D02*
D03*
X316738Y289814D02*
D03*
X303276Y557022D02*
D03*
X164592Y668782D02*
D03*
X296672Y783844D02*
D03*
X554228Y636270D02*
D03*
X566420Y768096D02*
D03*
X397764Y928116D02*
D03*
X290322Y291709D02*
D03*
X302388Y376428D02*
D03*
X534924Y505588D02*
D03*
D62*
X39370Y775970D02*
D03*
X207010Y737870D02*
D03*
X214630Y778510D02*
D03*
X125730Y370840D02*
D03*
D96*
X246380Y268090D02*
D03*
Y232290D02*
D03*
D105*
X106680Y250030D02*
D03*
Y230030D02*
D03*
D113*
X76250Y435550D02*
D03*
Y427550D02*
D03*
Y379550D02*
D03*
Y371550D02*
D03*
D114*
Y421050D02*
D03*
Y416050D02*
D03*
Y411050D02*
D03*
Y406050D02*
D03*
Y386050D02*
D03*
Y391050D02*
D03*
Y396050D02*
D03*
Y401050D02*
D03*
D115*
X179070Y708459D02*
D03*
Y759460D02*
D03*
Y733958D02*
D03*
Y772208D02*
D03*
Y746709D02*
D03*
Y721210D02*
D03*
D116*
X202760Y435610D02*
D03*
X147760D02*
D03*
Y422910D02*
D03*
X202760Y346710D02*
D03*
X147760Y359410D02*
D03*
X202760D02*
D03*
Y384810D02*
D03*
X147760Y346710D02*
D03*
X202760Y372110D02*
D03*
X147760D02*
D03*
Y384810D02*
D03*
Y410210D02*
D03*
X202760Y397510D02*
D03*
Y410210D02*
D03*
X147760Y397510D02*
D03*
X202760Y422910D02*
D03*
D117*
X113740Y332330D02*
D03*
Y274730D02*
D03*
X107240Y332330D02*
D03*
Y274730D02*
D03*
X120240D02*
D03*
X100740D02*
D03*
Y332330D02*
D03*
X120240D02*
D03*
D118*
X188180Y307100D02*
D03*
Y277100D02*
D03*
D119*
X136040Y235560D02*
D03*
Y226060D02*
D03*
Y216560D02*
D03*
X161140D02*
D03*
Y226060D02*
D03*
Y235560D02*
D03*
D120*
X17780Y333370D02*
D03*
X276860Y421010D02*
D03*
X278130Y363230D02*
D03*
X293370Y922650D02*
D03*
Y906150D02*
D03*
X326390D02*
D03*
Y922650D02*
D03*
X113030Y494670D02*
D03*
Y511170D02*
D03*
X185420Y493400D02*
D03*
Y509900D02*
D03*
X276860Y437510D02*
D03*
X278130Y379730D02*
D03*
X17780Y316870D02*
D03*
D121*
X62230Y286370D02*
D03*
X36830D02*
D03*
X74930D02*
D03*
X36830Y236870D02*
D03*
X49530D02*
D03*
X62230D02*
D03*
X74930D02*
D03*
X49530Y286370D02*
D03*
D122*
X135320Y472440D02*
D03*
X159320Y462940D02*
D03*
Y481940D02*
D03*
X131510Y533400D02*
D03*
X155510Y523900D02*
D03*
Y542900D02*
D03*
D123*
X241300Y364150D02*
D03*
Y385150D02*
D03*
X238760Y418760D02*
D03*
Y439760D02*
D03*
D124*
X55880Y261620D02*
D03*
D125*
X186180Y292100D02*
D03*
D126*
X25319Y848210D02*
D03*
Y695960D02*
D03*
X153820Y848210D02*
D03*
Y695960D02*
D03*
M02*
