G04*
G04 #@! TF.GenerationSoftware,Altium Limited,Altium Designer,24.5.2 (23)*
G04*
G04 Layer_Physical_Order=2*
G04 Layer_Color=5220458*
%FSLAX44Y44*%
%MOMM*%
G71*
G04*
G04 #@! TF.SameCoordinates,D1886AC5-69C4-4AC9-A439-FDEF45822962*
G04*
G04*
G04 #@! TF.FilePolarity,Negative*
G04*
G01*
G75*
%ADD76C,1.0160*%
%AMTHOVALD77*
21,1,0.8000,2.1240,0,0,0.0*
1,1,2.1240,-0.4000,0.0000*
1,1,2.1240,0.4000,0.0000*
21,0,0.8000,1.6160,0,0,0.0*
1,0,1.6160,-0.4000,0.0000*
1,0,1.6160,0.4000,0.0000*
4,0,4,-0.3102,-0.0898,-1.0611,-0.8408,-1.2408,-0.6611,-0.4898,0.0898,-0.3102,-0.0898,0.0*
4,0,4,0.4898,-0.0898,1.2408,0.6611,1.0611,0.8408,0.3102,0.0898,0.4898,-0.0898,0.0*
4,0,4,-0.4898,-0.0898,-1.2408,0.6611,-1.0611,0.8408,-0.3102,0.0898,-0.4898,-0.0898,0.0*
4,0,4,0.3102,-0.0898,1.0611,-0.8408,1.2408,-0.6611,0.4898,0.0898,0.3102,-0.0898,0.0*
%
%ADD77THOVALD77*%

%AMTHOVALD78*
21,1,1.1000,2.1240,0,0,0.0*
1,1,2.1240,-0.5500,0.0000*
1,1,2.1240,0.5500,0.0000*
21,0,1.1000,1.6160,0,0,0.0*
1,0,1.6160,-0.5500,0.0000*
1,0,1.6160,0.5500,0.0000*
4,0,4,-0.4602,-0.0898,-1.2111,-0.8408,-1.3908,-0.6611,-0.6398,0.0898,-0.4602,-0.0898,0.0*
4,0,4,0.6398,-0.0898,1.3908,0.6611,1.2111,0.8408,0.4602,0.0898,0.6398,-0.0898,0.0*
4,0,4,-0.6398,-0.0898,-1.3908,0.6611,-1.2111,0.8408,-0.4602,0.0898,-0.6398,-0.0898,0.0*
4,0,4,0.4602,-0.0898,1.2111,-0.8408,1.3908,-0.6611,0.6398,0.0898,0.4602,-0.0898,0.0*
%
%ADD78THOVALD78*%

%ADD79C,1.6160*%
%AMTHRECTD80*
4,1,4,-1.9620,-1.4520,-1.9620,1.4520,1.9620,1.4520,1.9620,-1.4520,-1.9620,-1.4520,0.0*
4,0,4,-1.7080,-1.1980,-1.7080,1.1980,1.7080,1.1980,1.7080,-1.1980,-1.7080,-1.1980,0.0*
20,0,0.2540,-0.5100,0.0000,-3.4140,-2.9040,0*
20,0,0.2540,0.5100,0.0000,3.4140,2.9040,0*
20,0,0.2540,-0.5100,0.0000,-3.4140,2.9040,0*
20,0,0.2540,0.5100,0.0000,3.4140,-2.9040,0*
%
%ADD80THRECTD80*%

G04:AMPARAMS|DCode=81|XSize=2.524mm|YSize=2.524mm|CornerRadius=0mm|HoleSize=0mm|Usage=FLASHONLY|Rotation=0.000|XOffset=0mm|YOffset=0mm|HoleType=Round|Shape=Relief|Width=0.254mm|Gap=0.254mm|Entries=4|*
%AMTHD81*
7,0,0,2.5240,2.0160,0.2540,45*
%
%ADD81THD81*%
G04:AMPARAMS|DCode=82|XSize=1.724mm|YSize=1.724mm|CornerRadius=0mm|HoleSize=0mm|Usage=FLASHONLY|Rotation=0.000|XOffset=0mm|YOffset=0mm|HoleType=Round|Shape=Relief|Width=0.254mm|Gap=0.254mm|Entries=4|*
%AMTHD82*
7,0,0,1.7240,1.2160,0.2540,45*
%
%ADD82THD82*%
%ADD83C,2.0160*%
%ADD84C,1.9160*%
%ADD85C,4.2160*%
%ADD86R,3.4160X2.3960*%
%ADD87C,3.0160*%
G04:AMPARAMS|DCode=88|XSize=2.2352mm|YSize=2.2352mm|CornerRadius=0mm|HoleSize=0mm|Usage=FLASHONLY|Rotation=0.000|XOffset=0mm|YOffset=0mm|HoleType=Round|Shape=Relief|Width=0.254mm|Gap=0.254mm|Entries=4|*
%AMTHD88*
7,0,0,2.2352,1.7272,0.2540,45*
%
%ADD88THD88*%
%ADD89C,1.7272*%
G04:AMPARAMS|DCode=90|XSize=2.124mm|YSize=2.124mm|CornerRadius=0mm|HoleSize=0mm|Usage=FLASHONLY|Rotation=0.000|XOffset=0mm|YOffset=0mm|HoleType=Round|Shape=Relief|Width=0.254mm|Gap=0.254mm|Entries=4|*
%AMTHD90*
7,0,0,2.1240,1.6160,0.2540,45*
%
%ADD90THD90*%
D76*
Y156210D02*
Y1010920D01*
X655320D01*
Y156210D02*
Y1010920D01*
X0Y156210D02*
X655320D01*
D77*
X28750Y446800D02*
D03*
Y360300D02*
D03*
D78*
X70450Y446800D02*
D03*
Y360300D02*
D03*
D79*
X65550Y432450D02*
D03*
Y374650D02*
D03*
X207010Y737870D02*
D03*
X214630Y778510D02*
D03*
D80*
X535940Y946420D02*
D03*
D81*
X345440Y758190D02*
D03*
D82*
X138300Y924275D02*
D03*
Y905925D02*
D03*
X129125Y915100D02*
D03*
Y933450D02*
D03*
Y896750D02*
D03*
X119950Y924275D02*
D03*
X110775Y933450D02*
D03*
X119950Y905925D02*
D03*
X110775Y896750D02*
D03*
Y915100D02*
D03*
X101600Y924275D02*
D03*
Y905925D02*
D03*
D83*
X370840Y758190D02*
D03*
X421640D02*
D03*
X396240D02*
D03*
D84*
X294640Y184150D02*
D03*
X244640D02*
D03*
X269640D02*
D03*
D85*
X535940Y858520D02*
D03*
Y302370D02*
D03*
D86*
Y217420D02*
D03*
D87*
X273540Y533190D02*
D03*
X493540D02*
D03*
Y753190D02*
D03*
X273540D02*
D03*
D88*
X90170Y497840D02*
D03*
X179220Y704977D02*
D03*
X97790Y453390D02*
D03*
X27330Y990100D02*
D03*
X138430Y951230D02*
D03*
X257556Y373489D02*
D03*
X474472Y394208D02*
D03*
X294894Y499364D02*
D03*
X119380Y665226D02*
D03*
X159512Y633984D02*
D03*
X561086Y800100D02*
D03*
X247650Y974013D02*
D03*
X118872Y852424D02*
D03*
X534924Y430401D02*
D03*
X183360Y331090D02*
D03*
X321550Y365700D02*
D03*
X391160Y367800D02*
D03*
X11938Y292100D02*
D03*
X321818Y207772D02*
D03*
X217932Y266700D02*
D03*
X316738Y289814D02*
D03*
X303276Y557022D02*
D03*
X164592Y668782D02*
D03*
X296672Y783844D02*
D03*
X554228Y636270D02*
D03*
X566420Y768096D02*
D03*
X397764Y928116D02*
D03*
X534924Y505588D02*
D03*
D89*
X22860Y826770D02*
D03*
D03*
X166269Y783174D02*
D03*
X59182Y812292D02*
D03*
X12192Y810768D02*
D03*
X448818Y620014D02*
D03*
X411734Y567436D02*
D03*
X285750Y647700D02*
D03*
X190500Y675640D02*
D03*
X109220Y577850D02*
D03*
X302260Y417830D02*
D03*
X139700Y448310D02*
D03*
X244260Y459166D02*
D03*
X309880Y805180D02*
D03*
X193040Y850900D02*
D03*
X185420Y880110D02*
D03*
X492760Y922020D02*
D03*
X300990Y858012D02*
D03*
X170180Y559562D02*
D03*
X581840Y521462D02*
D03*
X196342Y568452D02*
D03*
X583184Y441706D02*
D03*
X120904Y472440D02*
D03*
X133350Y746760D02*
D03*
X586740Y702056D02*
D03*
X34290Y171450D02*
D03*
X27432Y901200D02*
D03*
X130556Y641350D02*
D03*
X118618Y705358D02*
D03*
X90678Y833882D02*
D03*
X167386Y971296D02*
D03*
X491490Y882960D02*
D03*
X336550Y699770D02*
D03*
X281940Y629920D02*
D03*
X271046Y471650D02*
D03*
X62230Y875792D02*
D03*
X299974Y619760D02*
D03*
X31230Y199020D02*
D03*
X61722Y685292D02*
D03*
X16002Y956564D02*
D03*
X175514Y944880D02*
D03*
X176022Y847344D02*
D03*
X584210Y902960D02*
D03*
X191516Y954786D02*
D03*
X257048Y505206D02*
D03*
X235590Y864108D02*
D03*
X197590Y698410D02*
D03*
X269240Y240030D02*
D03*
X16256Y260604D02*
D03*
X203708Y192278D02*
D03*
X83058Y269494D02*
D03*
X265176Y265176D02*
D03*
X319024Y331216D02*
D03*
X379730Y332232D02*
D03*
X473710Y277622D02*
D03*
X268732Y799592D02*
D03*
X100330Y964438D02*
D03*
X290322Y291709D02*
D03*
X302388Y376428D02*
D03*
D90*
X39370Y775970D02*
D03*
X125730Y370840D02*
D03*
M02*
